<svg width="1001.074" height="167.651" viewBox="0 0 1001.074 167.651" xmlns="http://www.w3.org/2000/svg">
	<g id="svgGroup" stroke-linecap="round" fill-rule="evenodd" font-size="9pt" stroke="#000" stroke-width="0.25mm" fill="none" style="stroke:#000;stroke-width:0.25mm;fill:none">
		<path d="M 71.631 52.954 L 69.141 50.464 A 4.445 4.445 0 0 1 67.824 51.825 A 4.339 4.339 0 0 1 66.284 52.442 A 4.415 4.415 0 0 1 65.416 52.529 Q 64.456 52.529 63.515 52.097 A 5.974 5.974 0 0 1 62.695 51.636 A 12.453 12.453 0 0 1 60.273 52.91 Q 58.408 53.629 56.543 53.54 Q 53.467 53.394 50.537 53.32 Q 47.607 53.247 45.044 54.492 A 5.711 5.711 0 0 0 43.305 55.851 Q 41.849 57.475 40.723 60.571 A 161.635 161.635 0 0 0 38.232 67.383 Q 37.061 70.825 35.889 74.194 Q 32.666 82.984 29.37 91.553 A 206.448 206.448 0 0 1 21.973 108.472 Q 21.68 115.064 22.266 121.802 Q 22.852 128.54 23.584 135.132 A 8.276 8.276 0 0 0 23.158 137.766 A 8.961 8.961 0 0 0 23.218 138.794 A 15.448 15.448 0 0 0 24.075 142.35 A 17.245 17.245 0 0 0 24.17 142.603 A 22.239 22.239 0 0 0 25.928 146.192 A 21.902 21.902 0 0 0 27.372 148.29 A 18.554 18.554 0 0 0 28.125 149.194 L 30.762 146.704 L 34.424 151.831 A 49.183 49.183 0 0 1 36.017 149.872 A 65.286 65.286 0 0 1 37.866 147.803 A 45.498 45.498 0 0 1 42.041 143.848 A 25.305 25.305 0 0 1 46.655 140.772 A 17.6 17.6 0 0 1 50.554 139.299 A 16.024 16.024 0 0 1 51.563 139.087 Q 52.588 138.062 53.467 136.89 A 11.245 11.245 0 0 1 54.623 135.568 A 9.47 9.47 0 0 1 55.371 134.912 A 6.706 6.706 0 0 1 57.642 133.74 Q 58.887 133.374 60.645 133.96 A 33.255 33.255 0 0 0 68.994 127.295 L 76.318 119.238 Q 79.98 115.21 84.009 111.841 A 22.829 22.829 0 0 1 92.952 107.282 A 26.517 26.517 0 0 1 93.457 107.153 Q 89.941 115.65 84.521 123.633 A 84.18 84.18 0 0 1 72.363 137.915 A 17.035 17.035 0 0 1 69.678 140.418 A 21.064 21.064 0 0 1 67.969 141.577 A 268.333 268.333 0 0 1 66.76 142.328 A 317.182 317.182 0 0 1 65.479 143.115 A 317.182 317.182 0 0 0 64.197 143.903 A 268.333 268.333 0 0 0 62.988 144.653 A 95.894 95.894 0 0 0 55.371 150.293 Q 51.709 153.296 48.34 156.958 Q 47.9 156.079 47.168 155.786 A 3.988 3.988 0 0 0 46.274 155.549 A 5.343 5.343 0 0 0 45.483 155.493 A 12.506 12.506 0 0 0 43.579 155.64 A 6.421 6.421 0 0 1 43.033 155.701 Q 42.41 155.743 41.895 155.64 A 17.332 17.332 0 0 1 39.137 157.28 Q 37.714 157.967 36.015 158.522 A 32.587 32.587 0 0 1 34.644 158.936 Q 30.408 160.116 27.029 159.519 A 12.253 12.253 0 0 1 26.66 159.448 A 10.967 10.967 0 0 1 25.967 159.222 Q 25.099 158.91 23.877 158.35 A 37.578 37.578 0 0 1 23.053 157.961 Q 22.17 157.53 21.576 157.171 A 8.995 8.995 0 0 1 21.24 156.958 A 26.053 26.053 0 0 1 15.223 151.492 A 23.377 23.377 0 0 1 12.671 147.51 A 29.709 29.709 0 0 1 9.572 136.022 A 34.379 34.379 0 0 1 9.521 135.132 L 8.35 133.96 Q 9.741 132.675 10.39 131.391 A 5.548 5.548 0 0 0 10.767 130.444 A 8.874 8.874 0 0 0 11.125 127.948 A 9.158 9.158 0 0 0 11.06 126.856 Q 10.84 125.025 10.327 123.047 A 22.368 22.368 0 0 1 9.668 119.019 A 10.002 10.002 0 0 1 9.624 118.509 Q 9.565 117.525 9.741 116.821 L 10.254 114.771 A 486.137 486.137 0 0 0 12.451 105.615 A 344.067 344.067 0 0 1 14.648 96.607 A 273.274 273.274 0 0 1 21.46 74.561 A 634.298 634.298 0 0 1 29.59 52.954 A 18.297 18.297 0 0 0 25.378 51.907 A 16.96 16.96 0 0 0 24.902 51.856 Q 22.559 51.636 20.142 51.636 A 79.889 79.889 0 0 1 15.308 51.489 Q 12.891 51.343 10.547 50.464 A 30.592 30.592 0 0 1 10.307 50.36 Q 9.521 50.015 9.521 49.951 Q 9.521 49.888 8.635 49.879 A 30.607 30.607 0 0 0 8.35 49.878 Q 7.738 49.878 6.717 50.031 A 26.42 26.42 0 0 0 6.299 50.098 A 16.013 16.013 0 0 1 3.662 50.318 A 10.347 10.347 0 0 1 2.248 50.225 A 8.285 8.285 0 0 1 1.245 50.025 Q 0.159 49.735 0.003 48.729 A 2.035 2.035 0 0 1 0 48.706 L 0 47.241 A 10.44 10.44 0 0 1 0.119 46.168 Q 0.297 45.104 0.692 44.493 A 2.045 2.045 0 0 1 1.025 44.092 A 4.016 4.016 0 0 1 2.667 43.191 A 5.078 5.078 0 0 1 3.223 43.067 A 21.471 21.471 0 0 1 4.614 42.883 A 28.469 28.469 0 0 1 6.152 42.774 A 6.454 6.454 0 0 0 9.137 41.876 A 7.559 7.559 0 0 0 9.229 41.821 A 76.18 76.18 0 0 0 14.184 42.72 A 62.573 62.573 0 0 0 16.992 43.067 A 32.989 32.989 0 0 0 20.276 43.233 A 30.144 30.144 0 0 0 24.097 42.993 A 24.007 24.007 0 0 0 30.835 41.089 A 21.838 21.838 0 0 0 34.52 38.978 A 29.167 29.167 0 0 0 37.354 36.694 Q 39.697 32.153 40.869 26.953 Q 42.041 21.753 43.579 16.699 A 45.093 45.093 0 0 1 47.3 7.867 A 41.912 41.912 0 0 1 47.607 7.324 Q 50.098 3.003 55.225 0.073 A 9.342 9.342 0 0 1 56.153 0.003 Q 57.221 -0.024 58.155 0.22 A 6.011 6.011 0 0 1 59.326 0.659 A 62.067 62.067 0 0 1 62.842 2.564 A 30.251 30.251 0 0 0 61.67 6.812 Q 61.23 9.009 60.718 11.206 A 38.901 38.901 0 0 1 59.473 15.454 A 12.476 12.476 0 0 1 57.275 19.263 Q 58.751 19.83 59.259 20.574 A 1.541 1.541 0 0 1 59.473 21.021 Q 59.766 22.046 59.18 23.218 A 20.255 20.255 0 0 1 58.521 24.426 A 26.942 26.942 0 0 1 57.715 25.708 A 9.145 9.145 0 0 0 57.217 26.542 Q 56.996 26.965 56.862 27.353 A 3.82 3.82 0 0 0 56.689 28.052 A 2.922 2.922 0 0 0 54.957 28.846 Q 54.426 29.329 53.979 30.103 A 15.924 15.924 0 0 1 53.145 31.407 Q 52.705 32.022 52.254 32.503 A 7.705 7.705 0 0 1 51.709 33.032 A 5.8 5.8 0 0 0 51.39 33.863 Q 50.857 35.674 51.956 37.055 A 4.24 4.24 0 0 0 52.148 37.28 A 85.989 85.989 0 0 1 54.048 39.42 A 70.072 70.072 0 0 1 55.078 40.65 Q 55.797 40.889 56.516 40.889 A 4.46 4.46 0 0 0 57.715 40.723 Q 59.033 40.357 60.132 39.917 A 6.354 6.354 0 0 1 61.278 39.574 A 5.114 5.114 0 0 1 62.256 39.478 A 1.882 1.882 0 0 1 63.304 39.808 Q 63.595 39.999 63.871 40.301 A 4.544 4.544 0 0 1 64.16 40.65 Q 65.625 39.038 67.09 39.258 A 16.076 16.076 0 0 1 70.02 39.99 A 7.774 7.774 0 0 0 72.343 40.435 Q 72.463 40.439 72.583 40.439 A 7.332 7.332 0 0 0 72.949 40.43 A 2.306 2.306 0 0 0 74.137 40.005 Q 74.871 39.507 75.565 38.429 A 10.099 10.099 0 0 0 75.732 38.159 A 6.04 6.04 0 0 1 76.739 37.759 Q 77.939 37.409 79.028 37.72 Q 80.566 38.159 81.885 38.818 A 16.749 16.749 0 0 0 83.504 39.528 A 13.845 13.845 0 0 0 84.448 39.844 A 2.606 2.606 0 0 0 85.187 39.952 Q 86.054 39.952 86.956 39.368 A 4.969 4.969 0 0 0 87.012 39.331 A 22.177 22.177 0 0 0 88.932 39.499 Q 90.137 39.554 91.471 39.499 A 34.956 34.956 0 0 0 91.919 39.478 A 51.052 51.052 0 0 0 97.339 38.892 Q 100.049 38.452 102.759 37.793 A 145.06 145.06 0 0 1 105.302 37.197 Q 106.511 36.926 107.596 36.708 A 88.352 88.352 0 0 1 107.666 36.694 A 15.873 15.873 0 0 1 108.599 37.296 Q 109.966 38.253 110.303 39.038 Q 110.742 40.064 110.522 41.089 A 26.841 26.841 0 0 1 110.266 42.169 Q 110.12 42.737 109.937 43.36 A 3.479 3.479 0 0 0 109.81 44.056 Q 109.736 44.948 110.04 46.102 A 10.284 10.284 0 0 0 110.156 46.509 Q 108.105 48.706 105.615 48.779 A 24.149 24.149 0 0 1 104.905 48.79 A 23.415 23.415 0 0 1 100.708 48.413 A 22.909 22.909 0 0 0 97.289 48.046 Q 96.979 48.037 96.672 48.037 A 20.212 20.212 0 0 0 96.021 48.047 A 4.314 4.314 0 0 0 93.21 49.221 A 6.973 6.973 0 0 0 92.139 50.464 A 12.077 12.077 0 0 0 89.199 50.103 A 13.004 13.004 0 0 0 87.305 50.244 A 51.746 51.746 0 0 0 83.161 51.033 A 58.112 58.112 0 0 0 82.178 51.27 Q 79.541 51.929 76.904 52.515 Q 74.795 52.984 72.686 52.984 A 19.01 19.01 0 0 1 71.631 52.954 Z" id="0" vector-effect="non-scaling-stroke"/>
		<path d="M 113.232 132.788 L 118.652 118.14 Q 114.404 114.771 111.768 110.303 Q 109.131 105.835 105.322 102.026 Q 104.59 103.052 103.418 103.784 Q 102.341 104.457 102.501 105.872 A 3.844 3.844 0 0 0 102.539 106.128 L 104.004 107.446 A 132.312 132.312 0 0 0 98.085 114.39 A 164.57 164.57 0 0 0 94.263 119.385 A 68.628 68.628 0 0 0 89.014 127.64 A 56.827 56.827 0 0 0 86.572 132.788 A 11.194 11.194 0 0 0 86.13 132.777 Q 84.327 132.766 83.172 133.38 A 3.533 3.533 0 0 0 82.031 134.326 A 15.945 15.945 0 0 0 80.061 137.611 A 18.06 18.06 0 0 0 79.834 138.135 A 17.744 17.744 0 0 1 77.637 142.017 Q 76.377 143.696 73.513 143.504 A 9.765 9.765 0 0 1 73.242 143.482 A 77.27 77.27 0 0 0 72.235 145.801 A 90.772 90.772 0 0 0 71.777 146.924 A 20.745 20.745 0 0 1 70.02 150.366 A 10.184 10.184 0 0 1 67.529 153.076 A 5.383 5.383 0 0 1 65.291 154.045 A 7.467 7.467 0 0 1 63.867 154.175 A 5.418 5.418 0 0 1 63.132 153.275 Q 62.687 152.581 62.57 151.839 A 3.395 3.395 0 0 1 62.549 151.685 A 6.006 6.006 0 0 1 62.512 151.021 Q 62.512 150.21 62.728 149.373 A 7.661 7.661 0 0 1 62.842 148.975 A 16.616 16.616 0 0 1 63.792 146.626 A 18.697 18.697 0 0 1 64.014 146.192 A 12.111 12.111 0 0 0 64.698 144.65 A 9.635 9.635 0 0 0 65.039 143.482 A 19.022 19.022 0 0 1 69.287 135.791 L 75.439 128.906 Q 78.516 125.464 80.713 121.655 Q 82.91 117.847 82.471 112.72 A 15.751 15.751 0 0 0 85.552 112.161 A 18.149 18.149 0 0 0 86.353 111.914 A 15.841 15.841 0 0 0 90.015 110.156 Q 91.699 109.058 92.651 107.373 Q 93.604 105.689 93.311 103.345 A 2.95 2.95 0 0 1 92.665 102.917 A 1.985 1.985 0 0 1 91.992 101.66 A 8.442 8.442 0 0 1 91.919 100.543 A 9.295 9.295 0 0 1 91.992 99.39 A 10.362 10.362 0 0 0 97.192 95.801 Q 99.17 93.237 100.781 90.308 Q 102.393 87.378 103.931 84.375 Q 105.469 81.372 107.959 79.175 A 31.92 31.92 0 0 0 111.484 80.919 A 28.859 28.859 0 0 0 112.061 81.152 A 19.404 19.404 0 0 1 116.016 83.276 A 10.939 10.939 0 0 0 115.171 84.574 Q 114.77 85.306 114.558 86.011 A 5.818 5.818 0 0 0 114.404 86.646 A 18.388 18.388 0 0 0 114.111 89.942 L 114.111 93.237 A 6.645 6.645 0 0 1 113.818 95.149 A 9.112 9.112 0 0 1 113.232 96.607 Q 115.576 98.657 117.188 101.441 A 15.795 15.795 0 0 0 121.289 106.128 A 6.822 6.822 0 0 1 125.244 104.736 A 66.502 66.502 0 0 1 127.46 104.7 A 69.854 69.854 0 0 1 129.712 104.736 Q 131.716 104.801 133.55 104.523 A 18.642 18.642 0 0 0 134.033 104.443 A 4.681 4.681 0 0 0 136.732 102.908 A 6.746 6.746 0 0 0 137.402 102.026 A 1.839 1.839 0 0 0 138.135 102.466 Q 138.423 102.562 138.775 102.595 A 4.122 4.122 0 0 0 139.16 102.612 L 141.504 102.612 A 6.355 6.355 0 0 1 142.506 102.688 A 4.607 4.607 0 0 1 143.555 102.979 Q 144.434 103.345 144.58 104.37 Q 144.726 105.534 144.51 105.976 A 0.743 0.743 0 0 1 144.507 105.982 A 3.653 3.653 0 0 0 144.392 106.238 Q 144.272 106.533 144.134 106.977 A 20.358 20.358 0 0 0 143.994 107.446 A 16.804 16.804 0 0 0 143.928 107.721 Q 143.719 108.618 143.848 108.618 A 0.033 0.033 0 0 1 143.881 108.648 Q 143.914 108.773 143.645 109.428 A 15.407 15.407 0 0 1 143.555 109.644 Q 142.822 111.548 141.138 112.866 A 153.744 153.744 0 0 1 137.769 115.43 Q 136.084 116.675 134.692 118.213 A 5.334 5.334 0 0 0 133.352 121.227 A 7.183 7.183 0 0 0 133.301 122.095 A 11.307 11.307 0 0 0 131.27 123.055 Q 130.106 123.765 129.338 124.704 A 6.346 6.346 0 0 0 128.76 125.537 A 14.027 14.027 0 0 0 127.236 129.443 A 16.612 16.612 0 0 0 127.002 130.664 A 56.675 56.675 0 0 0 126.416 136.524 A 20.896 20.896 0 0 1 125.984 139.909 A 17.23 17.23 0 0 1 125.391 142.017 L 126.709 143.482 L 127.881 142.017 A 10.882 10.882 0 0 0 129.569 143.938 A 7.699 7.699 0 0 0 132.788 145.679 A 16.813 16.813 0 0 0 136.981 146.202 A 18.344 18.344 0 0 0 138.721 146.118 A 13.268 13.268 0 0 1 140.738 143.728 A 11.414 11.414 0 0 1 142.163 142.603 A 21.853 21.853 0 0 1 146.411 140.405 A 66.011 66.011 0 0 1 151.099 138.794 A 34.673 34.673 0 0 0 155.713 137.036 A 18.446 18.446 0 0 0 157.343 136.121 A 13.692 13.692 0 0 0 158.716 135.132 A 70.664 70.664 0 0 0 160.016 134.033 A 95.381 95.381 0 0 0 161.426 132.788 A 1217.513 1217.513 0 0 1 170.142 124.732 Q 174.463 120.776 178.857 116.675 Q 179.581 116.675 179.907 117.27 A 1.719 1.719 0 0 1 180.029 117.554 A 5.618 5.618 0 0 1 180.274 118.673 A 7.312 7.312 0 0 1 180.322 119.531 Q 180.322 120.63 180.249 121.729 A 51.85 51.85 0 0 0 180.217 122.246 Q 180.185 122.803 180.178 123.191 A 11.695 11.695 0 0 0 180.176 123.413 Q 177.821 124.54 176.539 126.024 A 6.516 6.516 0 0 0 175.635 127.368 A 25.21 25.21 0 0 0 173.804 132.202 A 36.339 36.339 0 0 1 172.192 136.963 Q 171.24 139.234 168.164 140.698 A 6.789 6.789 0 0 1 167.439 142.417 A 4.985 4.985 0 0 1 165.308 144.36 A 40.697 40.697 0 0 1 160.84 146.192 Q 158.496 146.997 156.665 148.316 A 4.046 4.046 0 0 0 155.223 150.29 Q 154.834 151.371 154.834 152.857 A 49.353 49.353 0 0 1 150.177 155.098 A 57.226 57.226 0 0 1 148.462 155.786 Q 145.02 157.105 141.284 157.764 A 34.834 34.834 0 0 1 135.221 158.303 A 33.376 33.376 0 0 1 133.887 158.276 A 20.167 20.167 0 0 1 127.002 156.812 A 21.482 21.482 0 0 1 123.285 154.581 A 24.239 24.239 0 0 1 122.754 154.175 A 11.999 11.999 0 0 0 122.062 153.659 Q 121.713 153.419 121.384 153.235 A 7.327 7.327 0 0 0 121.362 153.223 A 4.905 4.905 0 0 1 120.793 152.849 Q 120.394 152.548 119.971 152.124 Q 118.213 150.366 117.041 148.023 Q 115.869 145.679 115.137 143.042 Q 114.404 140.405 113.965 137.769 A 132.641 132.641 0 0 1 113.473 134.587 A 110.067 110.067 0 0 1 113.232 132.788 Z" id="1" vector-effect="non-scaling-stroke"/>
		<path d="M 215.625 153.003 L 214.6 153.15 A 7.698 7.698 0 0 1 214.367 154.051 Q 214.058 154.986 213.568 155.417 A 1.464 1.464 0 0 1 213.062 155.713 A 6.965 6.965 0 0 1 211.733 156.009 A 9.236 9.236 0 0 1 210.571 156.079 A 12.455 12.455 0 0 0 207.861 156.372 A 2.135 2.135 0 0 0 206.863 156.925 Q 206.265 157.484 205.788 158.566 A 9.353 9.353 0 0 0 205.664 158.862 Q 203.174 159.595 201.416 159.448 A 35.63 35.63 0 0 0 200.086 159.365 Q 198.701 159.302 196.875 159.302 A 13.691 13.691 0 0 1 196.276 159.288 Q 195.572 159.257 194.635 159.159 A 42.145 42.145 0 0 1 194.604 159.155 A 9.124 9.124 0 0 0 194.101 159.116 Q 193.048 159.064 192.334 159.302 Q 191.748 159.448 191.089 160.108 A 7.489 7.489 0 0 1 190.07 160.965 A 6.615 6.615 0 0 1 189.697 161.206 Q 188.965 161.646 188.232 161.572 Q 187.5 161.499 186.914 160.327 A 7.427 7.427 0 0 1 185.844 160.516 Q 185.532 160.547 185.229 160.547 A 5.324 5.324 0 0 1 183.691 160.327 A 8.278 8.278 0 0 1 181.408 159.226 A 9.706 9.706 0 0 1 180.908 158.862 A 14.064 14.064 0 0 1 178.629 156.618 A 15.621 15.621 0 0 1 178.491 156.445 A 71.063 71.063 0 0 0 177.147 154.792 A 58.428 58.428 0 0 0 176.367 153.882 Q 175.635 153.003 174.756 152.271 A 25.092 25.092 0 0 1 173.568 151.218 A 21.608 21.608 0 0 1 173.145 150.806 A 8.917 8.917 0 0 1 171.282 148.035 A 11.264 11.264 0 0 1 170.801 146.704 Q 170.068 144.214 169.922 141.577 A 31.683 31.683 0 0 1 169.873 139.819 A 31.812 31.812 0 0 1 170.068 136.304 Q 170.357 133.71 170.928 131.683 A 20.664 20.664 0 0 1 170.947 131.616 A 7.278 7.278 0 0 0 172.515 129.333 A 6.953 6.953 0 0 0 172.778 128.613 A 39.452 39.452 0 0 0 173.657 125.171 A 39.452 39.452 0 0 1 174.536 121.729 A 7.123 7.123 0 0 1 176.286 118.808 A 8.325 8.325 0 0 1 176.367 118.726 A 9.631 9.631 0 0 1 176.665 116.299 A 8.526 8.526 0 0 1 177.026 115.21 A 13.872 13.872 0 0 1 178.784 112.134 Q 179.883 110.669 181.274 109.424 A 68.055 68.055 0 0 0 182.928 107.896 A 56.855 56.855 0 0 0 183.838 107.007 Q 185.01 107.007 186.182 106.934 A 9.246 9.246 0 0 1 186.758 106.915 Q 187.61 106.915 188.379 107.08 A 3.861 3.861 0 0 1 189.676 107.606 A 3.629 3.629 0 0 1 190.137 107.959 Q 190.666 108.435 191.042 109.331 A 7.553 7.553 0 0 1 191.309 110.083 A 13.896 13.896 0 0 1 191.589 111.42 Q 191.886 113.321 191.502 114.812 A 5.673 5.673 0 0 1 190.796 116.455 Q 189.258 118.872 187.354 121.069 A 23.057 23.057 0 0 0 185.103 124.124 A 19.817 19.817 0 0 0 184.277 125.61 Q 183.105 127.954 184.863 131.616 A 4.562 4.562 0 0 0 184.128 131.671 Q 183.124 131.836 182.739 132.495 A 6.168 6.168 0 0 0 182.117 134.003 A 7.266 7.266 0 0 0 182.007 134.473 Q 181.787 135.571 181.348 136.597 A 2.397 2.397 0 0 1 180.376 137.7 A 3.699 3.699 0 0 1 179.59 138.062 A 2.57 2.57 0 0 1 180.118 138.864 Q 180.443 139.612 180.523 140.763 A 10.532 10.532 0 0 1 180.542 141.138 A 29.008 29.008 0 0 0 180.817 144.31 A 25.43 25.43 0 0 0 180.981 145.313 Q 181.28 146.923 181.967 147.999 A 4.992 4.992 0 0 0 182.3 148.462 A 1.649 1.649 0 0 0 183.302 149.043 Q 184.251 149.227 185.785 148.648 A 10.864 10.864 0 0 0 185.889 148.609 A 5.696 5.696 0 0 0 189.688 149.972 Q 190.086 149.972 190.503 149.927 Q 192.31 149.732 193.953 149.732 A 25.706 25.706 0 0 1 195.557 149.78 Q 197.607 148.462 199.072 148.389 A 9.696 9.696 0 0 1 199.556 148.377 A 8.551 8.551 0 0 1 201.855 148.682 A 37.677 37.677 0 0 0 203.915 149.19 A 42.968 42.968 0 0 0 204.639 149.341 A 4.412 4.412 0 0 0 205.379 149.423 Q 206.416 149.452 207.698 149.054 A 11.506 11.506 0 0 0 208.154 148.901 Q 208.673 146.698 209.879 146.1 A 2.076 2.076 0 0 1 210.205 145.972 A 12.305 12.305 0 0 1 213.135 145.459 A 10.08 10.08 0 0 0 214.963 145.205 A 8.656 8.656 0 0 0 215.845 144.946 Q 216.939 144.56 217.411 142.59 A 9.696 9.696 0 0 0 217.529 142.017 A 5.118 5.118 0 0 1 218.543 141.04 A 3.91 3.91 0 0 1 220.313 140.332 A 91.019 91.019 0 0 0 223.608 139.819 A 7.728 7.728 0 0 0 226.685 138.574 Q 228.014 137.665 228.608 135.084 A 13.356 13.356 0 0 0 228.662 134.839 A 179.088 179.088 0 0 0 229.82 133.946 Q 231.427 132.697 232.251 131.983 Q 233.234 131.131 233.923 130.572 A 33.508 33.508 0 0 1 234.082 130.444 A 14.106 14.106 0 0 1 234.693 129.984 Q 235.254 129.584 235.986 129.126 Q 237.066 128.452 239.511 126.908 A 3105.351 3105.351 0 0 0 239.941 126.636 Q 240.073 129.522 239.557 130.881 A 3.19 3.19 0 0 1 239.429 131.177 A 8.645 8.645 0 0 1 238.774 132.283 Q 238.364 132.867 237.891 133.301 Q 237.012 134.107 236.353 135.059 Q 235.8 135.856 235.711 137.631 A 14.379 14.379 0 0 0 235.693 138.355 A 111.845 111.845 0 0 1 234.091 140.062 Q 232.346 141.881 231.035 143.048 A 25.325 25.325 0 0 1 230.273 143.701 A 34.085 34.085 0 0 1 228.259 145.239 A 25.681 25.681 0 0 1 226.318 146.485 A 388.249 388.249 0 0 1 224.304 147.638 A 524.881 524.881 0 0 1 222.07 148.901 A 46.894 46.894 0 0 0 220.789 149.652 Q 219.353 150.521 217.451 151.779 A 184.761 184.761 0 0 0 215.625 153.003 Z M 196.729 61.011 L 204.053 52.515 Q 205.433 52.975 206.362 53.615 A 5.714 5.714 0 0 1 206.836 53.98 Q 207.861 54.859 208.594 56.03 Q 209.326 57.202 209.985 58.447 Q 210.645 59.693 211.523 61.011 A 6.884 6.884 0 0 0 210.288 61.628 Q 209.618 62.06 209.207 62.605 A 3.169 3.169 0 0 0 208.594 64.087 A 23.841 23.841 0 0 0 208.359 67.462 A 26.205 26.205 0 0 0 208.374 68.335 A 26.032 26.032 0 0 1 208.389 69.202 Q 208.389 70.913 208.154 72.437 A 2.59 2.59 0 0 1 206.824 74.331 Q 206.379 74.595 205.79 74.778 A 7.165 7.165 0 0 1 205.225 74.927 A 16.057 16.057 0 0 0 202.945 71.921 A 18.032 18.032 0 0 0 202.661 71.631 A 176.305 176.305 0 0 1 199.658 68.555 A 13.953 13.953 0 0 1 197.743 66.044 A 12.581 12.581 0 0 1 197.314 65.259 A 6.189 6.189 0 0 1 196.733 63.351 Q 196.599 62.408 196.696 61.319 A 11.292 11.292 0 0 1 196.729 61.011 Z" id="2" vector-effect="non-scaling-stroke"/>
		<path d="M 323.291 112.28 L 318.604 117.261 L 315.82 125.61 A 46.091 46.091 0 0 1 312.832 127.605 A 51.178 51.178 0 0 1 312.378 127.881 A 32.143 32.143 0 0 0 310.232 129.283 A 26.46 26.46 0 0 0 309.082 130.151 Q 307.471 131.47 306.226 133.081 A 16.823 16.823 0 0 1 304.234 135.251 A 14.98 14.98 0 0 1 303.516 135.864 A 12.953 12.953 0 0 1 301.316 137.274 A 15.875 15.875 0 0 1 300.073 137.842 A 23.715 23.715 0 0 0 297.581 139.024 A 20.09 20.09 0 0 0 296.484 139.673 A 67.926 67.926 0 0 0 291.638 142.861 A 61.444 61.444 0 0 0 290.991 143.335 A 85.729 85.729 0 0 1 285.645 146.997 Q 285.14 147.199 284.809 147.435 A 2.095 2.095 0 0 0 284.546 147.656 A 2.182 2.182 0 0 1 284.22 147.921 Q 284.044 148.039 283.824 148.148 A 5.162 5.162 0 0 1 283.447 148.316 Q 283.073 148.565 280.576 149.239 A 115.202 115.202 0 0 1 279.639 149.487 A 606.587 606.587 0 0 0 276.105 150.421 A 796.195 796.195 0 0 0 272.241 151.465 A 408.819 408.819 0 0 1 268.341 152.509 A 330.611 330.611 0 0 1 264.697 153.443 Q 261.182 154.321 260.742 154.321 Q 258.105 154.614 255.322 154.614 A 105.89 105.89 0 0 0 249.756 154.761 L 247.559 156.079 A 30.063 30.063 0 0 0 244.747 154.272 A 34.084 34.084 0 0 0 244.043 153.882 Q 242.139 152.857 240.82 151.685 A 32.076 32.076 0 0 1 238.989 149.894 A 38.68 38.68 0 0 1 237.891 148.682 A 114.608 114.608 0 0 1 236.499 147.052 A 88.314 88.314 0 0 1 235.254 145.532 A 367.001 367.001 0 0 0 233.789 141.504 A 32.41 32.41 0 0 1 232.792 138.339 A 28.971 28.971 0 0 1 232.617 137.622 L 231.885 132.056 A 251.277 251.277 0 0 1 231.386 126.801 A 232.128 232.128 0 0 1 231.372 126.636 A 249.959 249.959 0 0 0 230.878 121.39 A 271.414 271.414 0 0 0 230.859 121.216 Q 233.35 114.331 235.327 107.373 A 109.175 109.175 0 0 1 240.234 93.677 Q 240.967 92.066 241.626 90.381 A 66.699 66.699 0 0 1 243.018 87.085 A 30.973 30.973 0 0 1 244.668 84.177 A 28.33 28.33 0 0 1 244.922 83.789 A 22.346 22.346 0 0 0 246.68 80.64 Q 247.412 78.882 247.852 77.051 A 19.192 19.192 0 0 1 248.889 73.913 A 17.633 17.633 0 0 1 249.023 73.609 A 16.747 16.747 0 0 1 249.28 73.119 Q 249.582 72.562 250.04 71.79 A 79.345 79.345 0 0 1 250.488 71.045 A 171.322 171.322 0 0 1 251.55 69.324 A 198.27 198.27 0 0 1 252.686 67.529 Q 253.857 65.698 254.956 63.941 Q 256.055 62.183 256.787 61.157 A 70.967 70.967 0 0 1 258.838 58.706 A 64.69 64.69 0 0 1 259.131 58.374 Q 260.303 57.056 261.035 55.444 A 26.16 26.16 0 0 0 262.201 53.204 Q 262.723 52.081 263.224 50.776 A 51.56 51.56 0 0 0 263.818 49.146 A 50.14 50.14 0 0 1 265.21 45.557 A 37.859 37.859 0 0 1 266.748 42.407 A 36.316 36.316 0 0 1 270.923 36.328 Q 273.34 33.472 275.391 30.396 A 69.56 69.56 0 0 0 278.474 25.671 A 81.403 81.403 0 0 0 279.639 23.657 L 286.084 18.97 L 289.014 21.9 L 296.045 20.728 L 300.439 27.319 A 2432.837 2432.837 0 0 0 300.149 29.508 Q 299.997 30.657 299.829 31.933 A 4085.461 4085.461 0 0 0 299.78 32.3 A 104.894 104.894 0 0 0 299.194 37.94 A 112.389 112.389 0 0 0 298.906 43.336 A 103.328 103.328 0 0 0 298.901 43.506 A 39.256 39.256 0 0 0 298.887 44.531 Q 298.885 46.609 299.12 48.26 A 21.243 21.243 0 0 0 299.121 48.267 A 29.683 29.683 0 0 1 297.984 51.562 A 37.196 37.196 0 0 1 296.997 53.76 A 25.658 25.658 0 0 1 295.365 56.643 A 20.089 20.089 0 0 1 293.848 58.667 L 293.262 66.577 L 287.402 71.851 L 286.67 79.321 L 281.689 85.181 A 603.111 603.111 0 0 0 280.811 89.356 A 25.899 25.899 0 0 1 279.751 93.085 A 23.77 23.77 0 0 1 279.639 93.384 A 33.333 33.333 0 0 1 278.383 96.048 A 38.593 38.593 0 0 1 277.881 96.973 A 257.569 257.569 0 0 0 275.83 100.708 A 94.668 94.668 0 0 0 272.111 104.05 A 113.857 113.857 0 0 0 269.824 106.275 A 82.179 82.179 0 0 0 265.581 110.841 A 71.322 71.322 0 0 0 264.258 112.427 Q 262.939 114.038 261.841 115.869 A 47.315 47.315 0 0 1 259.867 118.899 A 42.67 42.67 0 0 1 259.57 119.312 Q 255.762 124.146 251.367 128.394 A 245.213 245.213 0 0 0 242.725 137.183 L 245.947 142.896 A 118.581 118.581 0 0 0 252.246 144.8 A 155.313 155.313 0 0 0 258.691 146.411 Q 259.95 146.159 261.534 145.854 A 647.233 647.233 0 0 1 262.061 145.752 A 71.429 71.429 0 0 0 264.999 145.12 A 81.241 81.241 0 0 0 266.016 144.873 Q 268.066 144.36 270.044 143.775 A 38.03 38.03 0 0 0 271.434 143.335 Q 272.516 142.969 273.34 142.603 A 35.486 35.486 0 0 0 275.661 141.569 Q 277.698 140.579 280.078 139.16 A 208.522 208.522 0 0 0 282.77 137.53 Q 284.086 136.718 285.223 135.984 A 102.994 102.994 0 0 0 286.523 135.132 A 1385.023 1385.023 0 0 0 296.045 129.126 Q 300.879 126.05 305.273 122.681 A 42.055 42.055 0 0 0 308.084 120.363 Q 309.51 119.087 310.999 117.557 A 71.047 71.047 0 0 0 311.426 117.114 Q 314.648 113.745 317.505 110.742 A 87.321 87.321 0 0 1 319.565 108.645 Q 321.213 107.025 322.632 105.835 A 15.378 15.378 0 0 1 323.382 105.242 Q 325.056 104.008 325.781 104.37 A 8.767 8.767 0 0 1 325.801 104.954 A 8.612 8.612 0 0 1 324.976 108.618 A 620.317 620.317 0 0 0 324.185 110.329 Q 323.823 111.113 323.501 111.819 A 365.081 365.081 0 0 0 323.291 112.28 Z M 288.428 42.407 L 285.938 35.083 A 138.297 138.297 0 0 1 279.419 44.971 Q 275.977 49.732 273.047 54.859 A 27.073 27.073 0 0 0 271.289 58.447 A 19.321 19.321 0 0 1 269.671 61.596 A 21.622 21.622 0 0 1 269.385 62.036 A 62.858 62.858 0 0 1 267.187 65.259 A 20.718 20.718 0 0 0 265.137 68.775 A 62.544 62.544 0 0 0 261.987 75.879 A 107.307 107.307 0 0 1 258.984 83.13 A 41.394 41.394 0 0 1 254.883 89.722 Q 252.539 92.798 250.635 96.314 L 248.291 101.001 A 7.425 7.425 0 0 1 248.108 101.423 Q 247.924 101.811 247.74 102.054 A 2.031 2.031 0 0 1 247.705 102.1 Q 247.425 102.45 247.145 103.134 A 8.887 8.887 0 0 0 247.119 103.198 A 9.809 9.809 0 0 0 246.57 105.78 A 11.708 11.708 0 0 0 246.533 106.714 A 14.469 14.469 0 0 1 246.378 108.872 A 11.899 11.899 0 0 1 246.094 110.23 A 14.205 14.205 0 0 1 244.775 113.599 Q 243.896 115.21 243.164 116.821 Q 242.432 118.433 241.992 120.117 Q 241.553 121.802 240.967 123.413 A 17.95 17.95 0 0 1 243.53 121.289 A 27.2 27.2 0 0 0 246.24 119.165 Q 247.559 117.847 248.73 116.382 Q 249.902 114.917 251.367 113.745 A 20.645 20.645 0 0 1 254.224 111.621 Q 255.762 110.669 257.227 109.644 A 52.488 52.488 0 0 0 261.328 103.052 Q 262.207 101.441 262.866 99.39 A 16.914 16.914 0 0 1 263.833 96.998 A 14.154 14.154 0 0 1 264.551 95.728 A 14.158 14.158 0 0 1 266.158 93.393 A 16.521 16.521 0 0 1 266.821 92.651 A 20.366 20.366 0 0 0 269.109 89.776 A 18.891 18.891 0 0 0 269.238 89.575 Q 270.41 87.964 271.216 86.206 A 27.986 27.986 0 0 1 273.047 82.837 A 55.484 55.484 0 0 1 277.588 76.685 L 278.32 67.456 L 283.594 61.304 L 284.326 55.737 L 287.988 50.61 L 288.428 42.407 Z" id="3" vector-effect="non-scaling-stroke"/>
		<path d="M 401.807 112.28 L 397.119 117.261 L 394.336 125.61 A 46.091 46.091 0 0 1 391.348 127.605 A 51.178 51.178 0 0 1 390.894 127.881 A 32.143 32.143 0 0 0 388.748 129.283 A 26.46 26.46 0 0 0 387.598 130.151 Q 385.986 131.47 384.741 133.081 A 16.823 16.823 0 0 1 382.75 135.251 A 14.98 14.98 0 0 1 382.031 135.864 A 12.953 12.953 0 0 1 379.831 137.274 A 15.875 15.875 0 0 1 378.589 137.842 A 23.715 23.715 0 0 0 376.097 139.024 A 20.09 20.09 0 0 0 375 139.673 A 67.926 67.926 0 0 0 370.153 142.861 A 61.444 61.444 0 0 0 369.507 143.335 A 85.729 85.729 0 0 1 364.16 146.997 Q 363.656 147.199 363.325 147.435 A 2.095 2.095 0 0 0 363.062 147.656 A 2.182 2.182 0 0 1 362.735 147.921 Q 362.56 148.039 362.339 148.148 A 5.162 5.162 0 0 1 361.963 148.316 Q 361.589 148.565 359.092 149.239 A 115.202 115.202 0 0 1 358.154 149.487 A 606.587 606.587 0 0 0 354.62 150.421 A 796.195 796.195 0 0 0 350.757 151.465 A 408.819 408.819 0 0 1 346.857 152.509 A 330.611 330.611 0 0 1 343.213 153.443 Q 339.697 154.321 339.258 154.321 Q 336.621 154.614 333.838 154.614 A 105.89 105.89 0 0 0 328.271 154.761 L 326.074 156.079 A 30.063 30.063 0 0 0 323.262 154.272 A 34.084 34.084 0 0 0 322.559 153.882 Q 320.654 152.857 319.336 151.685 A 32.076 32.076 0 0 1 317.505 149.894 A 38.68 38.68 0 0 1 316.406 148.682 A 114.608 114.608 0 0 1 315.015 147.052 A 88.314 88.314 0 0 1 313.77 145.532 A 367.001 367.001 0 0 0 312.305 141.504 A 32.41 32.41 0 0 1 311.308 138.339 A 28.971 28.971 0 0 1 311.133 137.622 L 310.4 132.056 A 251.277 251.277 0 0 1 309.901 126.801 A 232.128 232.128 0 0 1 309.888 126.636 A 249.959 249.959 0 0 0 309.393 121.39 A 271.414 271.414 0 0 0 309.375 121.216 Q 311.865 114.331 313.843 107.373 A 109.175 109.175 0 0 1 318.75 93.677 Q 319.482 92.066 320.142 90.381 A 66.699 66.699 0 0 1 321.533 87.085 A 30.973 30.973 0 0 1 323.183 84.177 A 28.33 28.33 0 0 1 323.438 83.789 A 22.346 22.346 0 0 0 325.195 80.64 Q 325.928 78.882 326.367 77.051 A 19.192 19.192 0 0 1 327.404 73.913 A 17.633 17.633 0 0 1 327.539 73.609 A 16.747 16.747 0 0 1 327.795 73.119 Q 328.098 72.562 328.555 71.79 A 79.345 79.345 0 0 1 329.004 71.045 A 171.322 171.322 0 0 1 330.066 69.324 A 198.27 198.27 0 0 1 331.201 67.529 Q 332.373 65.698 333.472 63.941 Q 334.57 62.183 335.303 61.157 A 70.967 70.967 0 0 1 337.354 58.706 A 64.69 64.69 0 0 1 337.646 58.374 Q 338.818 57.056 339.551 55.444 A 26.16 26.16 0 0 0 340.717 53.204 Q 341.238 52.081 341.74 50.776 A 51.56 51.56 0 0 0 342.334 49.146 A 50.14 50.14 0 0 1 343.726 45.557 A 37.859 37.859 0 0 1 345.264 42.407 A 36.316 36.316 0 0 1 349.438 36.328 Q 351.855 33.472 353.906 30.396 A 69.56 69.56 0 0 0 356.989 25.671 A 81.403 81.403 0 0 0 358.154 23.657 L 364.6 18.97 L 367.529 21.9 L 374.561 20.728 L 378.955 27.319 A 2432.837 2432.837 0 0 0 378.664 29.508 Q 378.512 30.657 378.344 31.933 A 4085.461 4085.461 0 0 0 378.296 32.3 A 104.894 104.894 0 0 0 377.71 37.94 A 112.389 112.389 0 0 0 377.422 43.336 A 103.328 103.328 0 0 0 377.417 43.506 A 39.256 39.256 0 0 0 377.402 44.531 Q 377.401 46.609 377.636 48.26 A 21.243 21.243 0 0 0 377.637 48.267 A 29.683 29.683 0 0 1 376.499 51.562 A 37.196 37.196 0 0 1 375.513 53.76 A 25.658 25.658 0 0 1 373.881 56.643 A 20.089 20.089 0 0 1 372.363 58.667 L 371.777 66.577 L 365.918 71.851 L 365.186 79.321 L 360.205 85.181 A 603.111 603.111 0 0 0 359.326 89.356 A 25.899 25.899 0 0 1 358.267 93.085 A 23.77 23.77 0 0 1 358.154 93.384 A 33.333 33.333 0 0 1 356.898 96.048 A 38.593 38.593 0 0 1 356.396 96.973 A 257.569 257.569 0 0 0 354.346 100.708 A 94.668 94.668 0 0 0 350.626 104.05 A 113.857 113.857 0 0 0 348.34 106.275 A 82.179 82.179 0 0 0 344.096 110.841 A 71.322 71.322 0 0 0 342.773 112.427 Q 341.455 114.038 340.356 115.869 A 47.315 47.315 0 0 1 338.382 118.899 A 42.67 42.67 0 0 1 338.086 119.312 Q 334.277 124.146 329.883 128.394 A 245.213 245.213 0 0 0 321.24 137.183 L 324.463 142.896 A 118.581 118.581 0 0 0 330.762 144.8 A 155.313 155.313 0 0 0 337.207 146.411 Q 338.466 146.159 340.049 145.854 A 647.233 647.233 0 0 1 340.576 145.752 A 71.429 71.429 0 0 0 343.515 145.12 A 81.241 81.241 0 0 0 344.531 144.873 Q 346.582 144.36 348.56 143.775 A 38.03 38.03 0 0 0 349.95 143.335 Q 351.031 142.969 351.855 142.603 A 35.486 35.486 0 0 0 354.176 141.569 Q 356.213 140.579 358.594 139.16 A 208.522 208.522 0 0 0 361.285 137.53 Q 362.601 136.718 363.739 135.984 A 102.994 102.994 0 0 0 365.039 135.132 A 1385.023 1385.023 0 0 0 374.561 129.126 Q 379.395 126.05 383.789 122.681 A 42.055 42.055 0 0 0 386.6 120.363 Q 388.026 119.087 389.515 117.557 A 71.047 71.047 0 0 0 389.941 117.114 Q 393.164 113.745 396.021 110.742 A 87.321 87.321 0 0 1 398.08 108.645 Q 399.728 107.025 401.147 105.835 A 15.378 15.378 0 0 1 401.898 105.242 Q 403.571 104.008 404.297 104.37 A 8.767 8.767 0 0 1 404.316 104.954 A 8.612 8.612 0 0 1 403.491 108.618 A 620.317 620.317 0 0 0 402.7 110.329 Q 402.339 111.113 402.017 111.819 A 365.081 365.081 0 0 0 401.807 112.28 Z M 366.943 42.407 L 364.453 35.083 A 138.297 138.297 0 0 1 357.935 44.971 Q 354.492 49.732 351.563 54.859 A 27.073 27.073 0 0 0 349.805 58.447 A 19.321 19.321 0 0 1 348.186 61.596 A 21.622 21.622 0 0 1 347.9 62.036 A 62.858 62.858 0 0 1 345.703 65.259 A 20.718 20.718 0 0 0 343.652 68.775 A 62.544 62.544 0 0 0 340.503 75.879 A 107.307 107.307 0 0 1 337.5 83.13 A 41.394 41.394 0 0 1 333.398 89.722 Q 331.055 92.798 329.15 96.314 L 326.807 101.001 A 7.425 7.425 0 0 1 326.624 101.423 Q 326.44 101.811 326.256 102.054 A 2.031 2.031 0 0 1 326.221 102.1 Q 325.941 102.45 325.661 103.134 A 8.887 8.887 0 0 0 325.635 103.198 A 9.809 9.809 0 0 0 325.085 105.78 A 11.708 11.708 0 0 0 325.049 106.714 A 14.469 14.469 0 0 1 324.894 108.872 A 11.899 11.899 0 0 1 324.609 110.23 A 14.205 14.205 0 0 1 323.291 113.599 Q 322.412 115.21 321.68 116.821 Q 320.947 118.433 320.508 120.117 Q 320.068 121.802 319.482 123.413 A 17.95 17.95 0 0 1 322.046 121.289 A 27.2 27.2 0 0 0 324.756 119.165 Q 326.074 117.847 327.246 116.382 Q 328.418 114.917 329.883 113.745 A 20.645 20.645 0 0 1 332.739 111.621 Q 334.277 110.669 335.742 109.644 A 52.488 52.488 0 0 0 339.844 103.052 Q 340.723 101.441 341.382 99.39 A 16.914 16.914 0 0 1 342.349 96.998 A 14.154 14.154 0 0 1 343.066 95.728 A 14.158 14.158 0 0 1 344.673 93.393 A 16.521 16.521 0 0 1 345.337 92.651 A 20.366 20.366 0 0 0 347.624 89.776 A 18.891 18.891 0 0 0 347.754 89.575 Q 348.926 87.964 349.731 86.206 A 27.986 27.986 0 0 1 351.563 82.837 A 55.484 55.484 0 0 1 356.104 76.685 L 356.836 67.456 L 362.109 61.304 L 362.842 55.737 L 366.504 50.61 L 366.943 42.407 Z" id="4" vector-effect="non-scaling-stroke"/>
		<path d="M 429.199 153.003 L 428.174 153.15 A 7.698 7.698 0 0 1 427.941 154.051 Q 427.632 154.986 427.142 155.417 A 1.464 1.464 0 0 1 426.636 155.713 A 6.965 6.965 0 0 1 425.307 156.009 A 9.236 9.236 0 0 1 424.146 156.079 A 12.455 12.455 0 0 0 421.436 156.372 A 2.135 2.135 0 0 0 420.437 156.925 Q 419.839 157.484 419.363 158.566 A 9.353 9.353 0 0 0 419.238 158.862 Q 416.748 159.595 414.99 159.448 A 35.63 35.63 0 0 0 413.661 159.365 Q 412.276 159.302 410.449 159.302 A 13.691 13.691 0 0 1 409.85 159.288 Q 409.147 159.257 408.209 159.159 A 42.145 42.145 0 0 1 408.179 159.155 A 9.124 9.124 0 0 0 407.675 159.116 Q 406.622 159.064 405.908 159.302 Q 405.322 159.448 404.663 160.108 A 7.489 7.489 0 0 1 403.644 160.965 A 6.615 6.615 0 0 1 403.271 161.206 Q 402.539 161.646 401.807 161.572 Q 401.074 161.499 400.488 160.327 A 7.427 7.427 0 0 1 399.418 160.516 Q 399.106 160.547 398.804 160.547 A 5.324 5.324 0 0 1 397.266 160.327 A 8.278 8.278 0 0 1 394.982 159.226 A 9.706 9.706 0 0 1 394.482 158.862 A 14.064 14.064 0 0 1 392.204 156.618 A 15.621 15.621 0 0 1 392.065 156.445 A 71.063 71.063 0 0 0 390.721 154.792 A 58.428 58.428 0 0 0 389.941 153.882 Q 389.209 153.003 388.33 152.271 A 25.092 25.092 0 0 1 387.142 151.218 A 21.608 21.608 0 0 1 386.719 150.806 A 8.917 8.917 0 0 1 384.857 148.035 A 11.264 11.264 0 0 1 384.375 146.704 Q 383.643 144.214 383.496 141.577 A 31.683 31.683 0 0 1 383.447 139.819 A 31.812 31.812 0 0 1 383.643 136.304 Q 383.931 133.71 384.503 131.683 A 20.664 20.664 0 0 1 384.521 131.616 A 7.278 7.278 0 0 0 386.09 129.333 A 6.953 6.953 0 0 0 386.353 128.613 A 39.452 39.452 0 0 0 387.231 125.171 A 39.452 39.452 0 0 1 388.11 121.729 A 7.123 7.123 0 0 1 389.86 118.808 A 8.325 8.325 0 0 1 389.941 118.726 A 9.631 9.631 0 0 1 390.239 116.299 A 8.526 8.526 0 0 1 390.601 115.21 A 13.872 13.872 0 0 1 392.358 112.134 Q 393.457 110.669 394.849 109.424 A 68.055 68.055 0 0 0 396.502 107.896 A 56.855 56.855 0 0 0 397.412 107.007 Q 398.584 107.007 399.756 106.934 A 9.246 9.246 0 0 1 400.333 106.915 Q 401.184 106.915 401.953 107.08 A 3.861 3.861 0 0 1 403.25 107.606 A 3.629 3.629 0 0 1 403.711 107.959 Q 404.24 108.435 404.616 109.331 A 7.553 7.553 0 0 1 404.883 110.083 A 13.896 13.896 0 0 1 405.163 111.42 Q 405.461 113.321 405.076 114.812 A 5.673 5.673 0 0 1 404.37 116.455 Q 402.832 118.872 400.928 121.069 A 23.057 23.057 0 0 0 398.677 124.124 A 19.817 19.817 0 0 0 397.852 125.61 Q 396.68 127.954 398.438 131.616 A 4.562 4.562 0 0 0 397.702 131.671 Q 396.698 131.836 396.313 132.495 A 6.168 6.168 0 0 0 395.691 134.003 A 7.266 7.266 0 0 0 395.581 134.473 Q 395.361 135.571 394.922 136.597 A 2.397 2.397 0 0 1 393.951 137.7 A 3.699 3.699 0 0 1 393.164 138.062 A 2.57 2.57 0 0 1 393.692 138.864 Q 394.018 139.612 394.097 140.763 A 10.532 10.532 0 0 1 394.116 141.138 A 29.008 29.008 0 0 0 394.391 144.31 A 25.43 25.43 0 0 0 394.556 145.313 Q 394.854 146.923 395.541 147.999 A 4.992 4.992 0 0 0 395.874 148.462 A 1.649 1.649 0 0 0 396.877 149.043 Q 397.826 149.227 399.359 148.648 A 10.864 10.864 0 0 0 399.463 148.609 A 5.696 5.696 0 0 0 403.262 149.972 Q 403.66 149.972 404.077 149.927 Q 405.884 149.732 407.528 149.732 A 25.706 25.706 0 0 1 409.131 149.78 Q 411.182 148.462 412.646 148.389 A 9.696 9.696 0 0 1 413.131 148.377 A 8.551 8.551 0 0 1 415.43 148.682 A 37.677 37.677 0 0 0 417.49 149.19 A 42.968 42.968 0 0 0 418.213 149.341 A 4.412 4.412 0 0 0 418.953 149.423 Q 419.991 149.452 421.273 149.054 A 11.506 11.506 0 0 0 421.729 148.901 Q 422.247 146.698 423.454 146.1 A 2.076 2.076 0 0 1 423.779 145.972 A 12.305 12.305 0 0 1 426.709 145.459 A 10.08 10.08 0 0 0 428.537 145.205 A 8.656 8.656 0 0 0 429.419 144.946 Q 430.513 144.56 430.985 142.59 A 9.696 9.696 0 0 0 431.104 142.017 A 5.118 5.118 0 0 1 432.118 141.04 A 3.91 3.91 0 0 1 433.887 140.332 A 91.019 91.019 0 0 0 437.183 139.819 A 7.728 7.728 0 0 0 440.259 138.574 Q 441.588 137.665 442.182 135.084 A 13.356 13.356 0 0 0 442.236 134.839 A 179.088 179.088 0 0 0 443.394 133.946 Q 445.001 132.697 445.825 131.983 Q 446.808 131.131 447.498 130.572 A 33.508 33.508 0 0 1 447.656 130.444 A 14.106 14.106 0 0 1 448.267 129.984 Q 448.828 129.584 449.561 129.126 Q 450.64 128.452 453.085 126.908 A 3105.351 3105.351 0 0 0 453.516 126.636 Q 453.647 129.522 453.132 130.881 A 3.19 3.19 0 0 1 453.003 131.177 A 8.645 8.645 0 0 1 452.349 132.283 Q 451.939 132.867 451.465 133.301 Q 450.586 134.107 449.927 135.059 Q 449.374 135.856 449.285 137.631 A 14.379 14.379 0 0 0 449.268 138.355 A 111.845 111.845 0 0 1 447.665 140.062 Q 445.92 141.881 444.609 143.048 A 25.325 25.325 0 0 1 443.848 143.701 A 34.085 34.085 0 0 1 441.833 145.239 A 25.681 25.681 0 0 1 439.893 146.485 A 388.249 388.249 0 0 1 437.878 147.638 A 524.881 524.881 0 0 1 435.645 148.901 A 46.894 46.894 0 0 0 434.363 149.652 Q 432.928 150.521 431.025 151.779 A 184.761 184.761 0 0 0 429.199 153.003 Z M 410.303 61.011 L 417.627 52.515 Q 419.007 52.975 419.936 53.615 A 5.714 5.714 0 0 1 420.41 53.98 Q 421.436 54.859 422.168 56.03 Q 422.9 57.202 423.56 58.447 Q 424.219 59.693 425.098 61.011 A 6.884 6.884 0 0 0 423.862 61.628 Q 423.192 62.06 422.781 62.605 A 3.169 3.169 0 0 0 422.168 64.087 A 23.841 23.841 0 0 0 421.934 67.462 A 26.205 26.205 0 0 0 421.948 68.335 A 26.032 26.032 0 0 1 421.963 69.202 Q 421.963 70.913 421.729 72.437 A 2.59 2.59 0 0 1 420.398 74.331 Q 419.954 74.595 419.364 74.778 A 7.165 7.165 0 0 1 418.799 74.927 A 16.057 16.057 0 0 0 416.519 71.921 A 18.032 18.032 0 0 0 416.235 71.631 A 176.305 176.305 0 0 1 413.232 68.555 A 13.953 13.953 0 0 1 411.317 66.044 A 12.581 12.581 0 0 1 410.889 65.259 A 6.189 6.189 0 0 1 410.307 63.351 Q 410.173 62.408 410.271 61.319 A 11.292 11.292 0 0 1 410.303 61.011 Z" id="5" vector-effect="non-scaling-stroke"/>
		<path d="M 531.006 145.239 L 544.629 137.036 Q 542.578 140.552 541.479 142.676 Q 540.585 144.406 539.69 145.65 A 15.152 15.152 0 0 1 539.282 146.192 Q 538.184 147.583 536.792 148.682 Q 535.4 149.78 532.91 151.392 A 25.717 25.717 0 0 1 530.902 153.046 A 21.128 21.128 0 0 1 529.688 153.882 A 26.354 26.354 0 0 1 528.148 154.996 A 21.186 21.186 0 0 1 527.124 155.64 A 8.909 8.909 0 0 1 526.499 155.977 Q 525.684 156.372 525.146 156.372 Q 524.854 156.372 524.561 156.299 Q 524.268 156.226 523.975 156.226 A 19.208 19.208 0 0 0 522.697 156.267 A 16.964 16.964 0 0 0 522.29 156.299 A 1.038 1.038 0 0 1 522.196 156.303 Q 521.468 156.303 520.926 155.254 A 4.436 4.436 0 0 1 520.898 155.2 Q 520.459 155.64 520.166 156.226 A 23.599 23.599 0 0 1 519.763 156.997 A 20.177 20.177 0 0 1 519.58 157.324 Q 519.287 157.837 518.774 158.13 Q 518.262 158.423 517.383 158.13 L 516.65 157.251 L 514.453 159.155 A 87.111 87.111 0 0 0 509.59 156.901 A 70.548 70.548 0 0 0 506.616 155.713 A 36.673 36.673 0 0 1 502.363 153.827 A 30.123 30.123 0 0 1 499.951 152.417 A 17.639 17.639 0 0 1 494.971 147.51 Q 493.421 145.241 492.541 141.675 A 32.435 32.435 0 0 1 492.041 139.234 Q 491.309 138.355 490.43 137.695 Q 489.635 137.1 488.602 137.282 A 3.223 3.223 0 0 0 488.379 137.329 A 16.973 16.973 0 0 1 485.612 140.892 A 15.646 15.646 0 0 1 484.863 141.577 A 71.938 71.938 0 0 0 481.306 144.846 A 80.061 80.061 0 0 0 480.762 145.386 A 6.189 6.189 0 0 0 479.604 146.97 A 5.91 5.91 0 0 0 479.59 146.997 Q 479.15 147.876 478.418 148.609 A 6.181 6.181 0 0 1 475.635 150.44 A 80.389 80.389 0 0 1 472.412 151.392 A 9.037 9.037 0 0 0 469.409 152.857 A 4.212 4.212 0 0 0 468.33 154.06 Q 467.989 154.613 467.737 155.324 A 9.915 9.915 0 0 0 467.432 156.372 A 5.529 5.529 0 0 0 466.24 155.845 Q 465.078 155.496 463.916 155.786 A 100.169 100.169 0 0 0 462.561 156.098 A 118.407 118.407 0 0 0 461.133 156.445 A 15.428 15.428 0 0 1 458.889 156.839 A 13.746 13.746 0 0 1 458.276 156.885 Q 456.885 156.958 455.566 156.519 A 4.015 4.015 0 0 1 454.194 155.716 Q 453.76 155.337 453.367 154.813 A 7.427 7.427 0 0 1 453.223 154.614 A 5.462 5.462 0 0 1 452.255 154.931 Q 451.78 155.036 451.321 155.036 A 3.952 3.952 0 0 1 449.414 154.541 Q 447.656 153.589 446.118 151.904 A 55.543 55.543 0 0 1 443.115 148.316 Q 441.65 146.411 440.332 145.532 A 7.23 7.23 0 0 1 440.044 144.577 Q 439.91 143.982 439.91 143.434 A 3.855 3.855 0 0 1 440.405 141.504 A 36.1 36.1 0 0 1 442.456 138.281 A 11.453 11.453 0 0 0 443.414 136.695 A 8.887 8.887 0 0 0 443.994 135.205 Q 444.434 133.667 442.676 131.47 Q 444.141 129.273 445.313 126.856 Q 446.484 124.439 447.729 122.022 A 72.521 72.521 0 0 1 450.366 117.334 A 14.58 14.58 0 0 1 453.809 113.452 A 4.74 4.74 0 0 1 453.345 112.819 Q 453.121 112.447 453.018 112.086 A 2.217 2.217 0 0 1 452.93 111.475 A 4.375 4.375 0 0 1 453.214 109.942 A 5.246 5.246 0 0 1 453.369 109.57 A 17.927 17.927 0 0 1 454.25 107.904 A 19.783 19.783 0 0 1 454.395 107.666 A 10.246 10.246 0 0 0 454.907 106.732 A 7.715 7.715 0 0 0 455.273 105.835 L 459.521 103.784 L 458.496 100.269 A 8.048 8.048 0 0 0 459.017 100.347 Q 460.243 100.487 460.913 100.122 Q 461.719 99.683 462.085 98.804 A 9.428 9.428 0 0 0 462.451 97.746 A 12.054 12.054 0 0 0 462.671 96.826 Q 462.891 95.728 463.33 94.849 A 4.22 4.22 0 0 1 465.527 92.944 Q 468.604 90.601 471.606 87.964 Q 474.609 85.327 477.612 82.837 A 99.745 99.745 0 0 1 483.838 78.076 A 37.594 37.594 0 0 1 490.869 74.194 A 13.029 13.029 0 0 1 492.622 74.605 Q 494.059 75.055 495.044 75.806 A 8.201 8.201 0 0 1 496.876 77.716 A 7.564 7.564 0 0 1 497.388 78.589 A 14.691 14.691 0 0 1 498.322 80.978 A 17.637 17.637 0 0 1 498.633 82.178 A 489.678 489.678 0 0 0 499.512 86.06 Q 500.18 88.331 501.092 89.993 A 13.74 13.74 0 0 0 501.27 90.308 A 6.101 6.101 0 0 0 502.634 91.896 Q 503.285 92.444 504.14 92.911 A 12.133 12.133 0 0 0 504.785 93.237 A 13.184 13.184 0 0 0 503.58 95.918 Q 503.096 97.455 503.096 98.978 A 9.603 9.603 0 0 0 503.174 100.195 A 561.162 561.162 0 0 1 503.613 103.729 A 651.567 651.567 0 0 1 504.053 107.446 A 25.892 25.892 0 0 1 504.256 110.66 A 24.365 24.365 0 0 1 503.979 114.331 A 7.398 7.398 0 0 1 502.433 117.797 Q 501.384 119.142 499.658 120.337 A 5.189 5.189 0 0 0 499.463 121.769 A 6.165 6.165 0 0 0 499.512 122.534 A 18.878 18.878 0 0 1 499.658 124.878 A 5.518 5.518 0 0 1 499.219 127.075 A 3.001 3.001 0 0 1 498.209 128.322 A 4.141 4.141 0 0 1 497.607 128.687 A 7.347 7.347 0 0 1 498.408 129.87 Q 498.953 130.89 498.999 131.909 A 730.173 730.173 0 0 0 499.072 133.484 A 633.157 633.157 0 0 0 499.146 134.985 A 6.209 6.209 0 0 0 499.48 136.742 A 5.529 5.529 0 0 0 499.878 137.622 Q 500.441 138.623 502.339 139.196 A 11.455 11.455 0 0 0 503.027 139.38 A 44.358 44.358 0 0 0 503.242 140.273 Q 503.484 141.226 503.701 141.868 A 9.574 9.574 0 0 0 503.833 142.236 A 6.528 6.528 0 0 0 504.155 142.95 Q 504.344 143.307 504.563 143.593 A 3.637 3.637 0 0 0 504.712 143.775 A 4.469 4.469 0 0 0 505.273 144.308 Q 505.637 144.601 506.104 144.873 A 18.336 18.336 0 0 1 506.58 145.162 Q 507.108 145.492 507.793 145.959 A 65.074 65.074 0 0 1 508.447 146.411 A 4.991 4.991 0 0 0 509.448 146.553 Q 509.972 146.575 510.545 146.501 A 8.008 8.008 0 0 0 511.084 146.411 A 3.019 3.019 0 0 1 511.467 146.359 Q 512.667 146.276 513.428 147.29 A 2.682 2.682 0 0 1 515.186 146.485 Q 516.211 146.411 517.09 146.558 L 518.994 149.78 A 17.797 17.797 0 0 1 521.417 148.308 A 21.204 21.204 0 0 1 522.656 147.73 A 42.342 42.342 0 0 1 525.163 146.745 A 35.719 35.719 0 0 1 526.611 146.265 Q 528.809 145.679 531.006 145.239 Z M 493.213 87.964 L 488.379 86.939 A 19.004 19.004 0 0 1 487.014 88.037 Q 486.274 88.582 485.407 89.127 A 31.847 31.847 0 0 1 485.156 89.282 A 62.029 62.029 0 0 0 481.421 91.773 A 18.86 18.86 0 0 0 479.192 93.643 A 16.103 16.103 0 0 0 478.271 94.629 Q 476.953 96.167 476.66 98.218 A 9.559 9.559 0 0 0 474.765 98.737 Q 472.882 99.486 471.973 101.001 A 23.728 23.728 0 0 0 470.12 104.862 A 27.036 27.036 0 0 0 469.775 105.835 A 94.247 94.247 0 0 1 467.871 111.035 A 7.747 7.747 0 0 1 464.805 114.705 A 9.937 9.937 0 0 1 464.209 115.064 A 4.458 4.458 0 0 1 463.648 115.385 Q 463.338 115.532 463.049 115.597 A 2.046 2.046 0 0 1 462.598 115.65 A 0.034 0.034 0 0 1 462.611 115.652 Q 462.675 115.68 461.938 116.109 A 31.506 31.506 0 0 1 461.719 116.235 A 11.348 11.348 0 0 0 459.028 119.029 A 12.84 12.84 0 0 0 458.936 119.165 Q 457.764 120.923 456.958 122.974 A 60.26 60.26 0 0 0 455.493 127.149 Q 454.834 129.273 454.248 131.03 A 15.892 15.892 0 0 0 453.121 131.23 Q 452.034 131.467 451.344 131.816 A 3.946 3.946 0 0 0 451.172 131.909 Q 450.229 132.448 449.968 133.048 A 1.271 1.271 0 0 0 449.927 133.154 A 1.872 1.872 0 0 0 449.834 133.68 Q 449.817 134.143 450 134.693 Q 450.272 135.509 450.798 136.453 A 14.982 14.982 0 0 0 450.879 136.597 A 26.395 26.395 0 0 1 451.444 137.485 Q 451.733 137.958 452.037 138.493 A 44.36 44.36 0 0 1 452.124 138.648 A 17.142 17.142 0 0 1 453.08 140.625 A 15.453 15.453 0 0 1 453.223 140.991 Q 453.662 142.163 453.735 143.335 Q 453.809 144.507 453.076 145.532 A 5.745 5.745 0 0 0 453.956 146.109 Q 455.445 146.889 456.854 146.274 A 3.722 3.722 0 0 0 457.031 146.192 A 25.185 25.185 0 0 0 460.139 144.357 A 22.918 22.918 0 0 0 460.547 144.068 A 81.186 81.186 0 0 0 461.151 143.61 A 98.824 98.824 0 0 0 461.792 143.115 A 5.754 5.754 0 0 1 463.092 142.347 A 5.394 5.394 0 0 1 463.184 142.31 A 12.31 12.31 0 0 0 464.924 142.564 Q 467.289 142.732 469.336 141.87 Q 472.119 140.698 474.463 138.648 A 63.949 63.949 0 0 0 479.004 134.253 A 45.462 45.462 0 0 1 481.75 131.553 A 37.258 37.258 0 0 1 483.398 130.151 L 482.227 128.98 Q 484.766 128.274 485.878 127.094 A 3.775 3.775 0 0 0 485.962 127.002 Q 487.061 125.757 487.354 124.146 A 9.298 9.298 0 0 0 487.5 122.479 Q 487.5 121.619 487.354 120.703 A 42.897 42.897 0 0 1 487.008 117.958 A 50.066 50.066 0 0 1 486.914 116.821 A 12.33 12.33 0 0 1 486.816 115.291 A 11.131 11.131 0 0 1 486.841 114.551 A 7.486 7.486 0 0 1 487.105 113.042 A 9.159 9.159 0 0 1 487.354 112.28 Q 486.182 108.911 486.987 105.835 A 32.058 32.058 0 0 1 489.185 99.902 A 209.591 209.591 0 0 0 491.895 94.116 Q 493.213 91.187 493.213 87.964 Z" id="6" vector-effect="non-scaling-stroke"/>
		<path d="M 678.516 149.048 L 677.197 148.316 A 0.434 0.434 0 0 0 677.096 148.282 Q 676.779 148.213 675.9 148.332 A 17.312 17.312 0 0 0 675.513 148.389 A 13.435 13.435 0 0 0 674.309 148.64 Q 673.727 148.788 673.084 148.996 A 25.953 25.953 0 0 0 672.29 149.268 A 16.229 16.229 0 0 0 669.363 150.677 A 18.557 18.557 0 0 0 668.701 151.099 Q 666.943 152.271 665.918 154.175 L 665.332 154.028 A 10.56 10.56 0 0 0 662.6 153.668 A 10.885 10.885 0 0 0 660.864 153.809 Q 658.594 154.175 656.396 154.175 A 22.272 22.272 0 0 1 655.467 154.214 Q 652.832 154.269 651.076 153.624 A 5.881 5.881 0 0 1 649.512 152.783 A 9.759 9.759 0 0 1 648.146 151.478 Q 646.91 150.073 645.588 147.791 A 43.258 43.258 0 0 1 644.824 146.411 A 15.036 15.036 0 0 1 643.854 144.36 A 16.5 16.5 0 0 1 643.799 144.214 A 21.578 21.578 0 0 1 643.066 141.87 L 643.066 141.284 Q 645.117 140.112 645.264 138.135 A 18.174 18.174 0 0 0 645.312 136.792 Q 645.313 135.681 645.184 134.506 A 23.619 23.619 0 0 0 645.117 133.96 A 45.031 45.031 0 0 1 644.786 130.486 A 40.134 40.134 0 0 1 644.751 129.712 A 4.958 4.958 0 0 1 644.748 129.535 Q 644.748 127.785 646.014 126.585 A 5.035 5.035 0 0 1 646.289 126.343 A 6.171 6.171 0 0 1 645.954 125.062 Q 645.714 123.411 646.509 121.875 Q 647.607 119.751 648.633 117.847 A 9.391 9.391 0 0 0 649.332 116.216 A 6.75 6.75 0 0 0 649.658 114.185 A 2.346 2.346 0 0 0 649.269 112.945 Q 648.538 111.765 646.436 110.523 A 34.235 34.235 0 0 0 640.063 113.818 A 218.635 218.635 0 0 0 634.058 117.92 A 444.796 444.796 0 0 1 628.052 122.095 A 31.834 31.834 0 0 1 621.68 125.464 A 43.293 43.293 0 0 1 617.106 129.815 A 37.661 37.661 0 0 1 615.234 131.25 Q 611.865 133.667 608.716 136.304 A 38.682 38.682 0 0 0 603.003 142.236 Q 600.439 145.532 599.121 150.366 Q 598.389 149.487 597.656 149.194 A 9.847 9.847 0 0 0 597.101 148.993 Q 596.811 148.897 596.474 148.801 A 22.882 22.882 0 0 0 595.752 148.609 Q 594.141 148.169 593.408 147.656 Q 592.747 147.193 591.726 146.312 A 47.212 47.212 0 0 1 591.504 146.118 L 591.65 145.825 A 96.958 96.958 0 0 1 594.267 139.11 A 107.956 107.956 0 0 1 594.727 138.062 A 20.313 20.313 0 0 0 596.277 132.871 A 17.98 17.98 0 0 0 596.484 130.151 Q 596.484 128.687 596.191 127.442 A 10.954 10.954 0 0 1 595.94 125.799 A 13.48 13.48 0 0 1 595.898 124.732 A 13.769 13.769 0 0 1 596.237 121.626 A 11.787 11.787 0 0 1 596.777 119.898 A 32.578 32.578 0 0 1 598.351 116.52 A 29.25 29.25 0 0 1 598.755 115.796 A 98.614 98.614 0 0 0 600.565 112.52 A 89.65 89.65 0 0 0 600.806 112.061 A 8.297 8.297 0 0 0 601.758 108.179 A 7.513 7.513 0 0 0 601.274 105.56 A 8.971 8.971 0 0 0 601.025 104.956 A 9.552 9.552 0 0 0 599.545 102.628 A 8.858 8.858 0 0 0 599.121 102.173 A 11.865 11.865 0 0 0 598.332 102.146 Q 596.798 102.146 595.414 102.559 A 9.493 9.493 0 0 0 595.02 102.686 A 41.425 41.425 0 0 0 591.211 104.224 A 34.947 34.947 0 0 1 587.256 105.762 A 11.464 11.464 0 0 1 583.937 106.299 Q 583.821 106.301 583.704 106.301 A 13.506 13.506 0 0 1 582.861 106.275 Q 579.785 109.351 576.563 112.354 A 712 712 0 0 1 570.117 118.286 A 286.417 286.417 0 0 0 557.007 130.737 Q 550.635 137.183 546.826 145.386 A 26.847 26.847 0 0 0 545.581 148.682 Q 545.068 150.366 544.336 151.978 Q 544.336 152.271 544.043 152.564 L 543.311 152.564 A 4.562 4.562 0 0 0 542.575 152.618 Q 541.571 152.783 541.187 153.443 A 6.168 6.168 0 0 0 540.564 154.95 A 7.266 7.266 0 0 0 540.454 155.42 A 27.016 27.016 0 0 1 539.941 157.544 Q 539.67 158.492 538.773 158.814 A 2.385 2.385 0 0 1 538.623 158.862 A 2.728 2.728 0 0 1 537.959 158.946 Q 537.356 158.946 536.774 158.665 A 3.515 3.515 0 0 1 536.353 158.423 A 14.718 14.718 0 0 1 535.461 157.782 Q 535.016 157.434 534.653 157.087 A 8.564 8.564 0 0 1 534.521 156.958 L 534.375 156.812 A 10.978 10.978 0 0 1 533.144 154.129 A 9.447 9.447 0 0 1 532.764 151.978 A 15.376 15.376 0 0 1 532.737 151.075 A 15.153 15.153 0 0 1 533.276 147.07 A 22.947 22.947 0 0 1 535.027 142.603 A 25.342 25.342 0 0 1 535.181 142.31 A 177.978 177.978 0 0 1 536.407 140.039 A 149.444 149.444 0 0 1 537.598 137.915 Q 539.355 134.839 540.894 131.543 A 16.258 16.258 0 0 0 542.432 124.585 A 12.092 12.092 0 0 0 542.351 123.155 Q 542.26 122.39 542.065 121.729 A 39.289 39.289 0 0 1 541.406 119.165 L 544.629 116.968 A 6.282 6.282 0 0 1 544.236 116.348 Q 543.874 115.691 543.823 115.137 A 8.697 8.697 0 0 1 543.787 114.349 A 7.542 7.542 0 0 1 543.823 113.599 A 137.895 137.895 0 0 1 543.896 112.885 A 117.952 117.952 0 0 1 543.97 112.207 A 2.412 2.412 0 0 0 543.984 111.941 Q 543.984 111.604 543.893 111.248 A 3.556 3.556 0 0 0 543.75 110.816 L 543.75 110.376 L 544.922 109.058 A 162.071 162.071 0 0 1 544.67 103.244 A 133.016 133.016 0 0 1 544.629 99.976 A 23.109 23.109 0 0 0 543.976 94.635 A 29.902 29.902 0 0 0 542.871 91.04 A 6.326 6.326 0 0 1 543.677 90.398 Q 545.213 89.381 546.665 90.013 A 3.347 3.347 0 0 1 546.826 90.088 Q 548.73 91.04 550.635 92.212 L 550.635 92.359 L 550.781 92.505 Q 551.953 94.263 552.832 96.753 Q 553.711 99.243 554.224 101.953 A 70.857 70.857 0 0 1 555.029 107.3 Q 555.291 109.659 555.319 111.548 A 30.03 30.03 0 0 1 555.322 111.987 A 8.34 8.34 0 0 1 555.294 112.691 A 6.93 6.93 0 0 1 555.249 113.086 A 7.256 7.256 0 0 0 555.186 113.756 A 8.739 8.739 0 0 0 555.176 114.185 L 554.297 115.064 A 23.125 23.125 0 0 0 555.452 116.139 A 26.84 26.84 0 0 0 555.908 116.528 Q 556.641 117.139 557.475 117.139 A 2.386 2.386 0 0 0 557.813 117.114 Q 558.436 115.245 559.575 114.296 A 4.056 4.056 0 0 1 560.596 113.672 Q 562.5 112.866 564.478 112.427 A 15.74 15.74 0 0 0 566.55 111.822 A 12.483 12.483 0 0 0 567.993 111.182 A 2.574 2.574 0 0 0 569.193 109.809 Q 569.531 108.975 569.531 107.739 Q 569.531 107.22 569.416 106.931 A 0.908 0.908 0 0 0 569.385 106.86 L 569.678 106.568 A 84.834 84.834 0 0 1 577.024 100.007 A 77.177 77.177 0 0 1 578.101 99.17 A 32.656 32.656 0 0 1 584.83 95.174 A 29.458 29.458 0 0 1 587.183 94.263 A 25.934 25.934 0 0 1 595.554 92.899 A 28.257 28.257 0 0 1 597.144 92.944 A 24.547 24.547 0 0 1 602.545 93.897 Q 604.953 94.589 607.509 95.768 A 42.993 42.993 0 0 1 608.35 96.167 L 608.643 96.314 L 610.254 102.319 L 609.229 103.345 Q 610.657 105.344 610.344 107.971 A 8.558 8.558 0 0 1 610.327 108.106 Q 609.961 110.816 609.082 113.452 A 598.483 598.483 0 0 0 608.24 115.997 A 476.057 476.057 0 0 0 607.471 118.36 A 8.361 8.361 0 0 0 607.281 119.039 Q 607.033 120.109 607.214 120.848 A 1.918 1.918 0 0 0 607.617 121.655 Q 608.35 122.681 610.327 122.534 A 112.982 112.982 0 0 0 611.266 122.461 Q 612.181 122.386 612.883 122.31 A 35.056 35.056 0 0 0 613.477 122.241 A 8.694 8.694 0 0 1 615.096 120.568 A 11.847 11.847 0 0 1 616.772 119.458 A 87.914 87.914 0 0 1 621.021 117.261 A 33.532 33.532 0 0 0 623.016 116.217 A 25.201 25.201 0 0 0 624.756 115.137 A 5.972 5.972 0 0 0 625.546 114.501 Q 625.944 114.117 626.18 113.708 A 2.513 2.513 0 0 0 626.514 112.72 A 10.827 10.827 0 0 0 627.416 112.852 Q 628.458 112.957 629.297 112.809 A 4.32 4.32 0 0 0 630.322 112.5 A 5.443 5.443 0 0 0 632.666 110.523 A 22.503 22.503 0 0 0 634.068 108.094 A 25.178 25.178 0 0 0 634.277 107.666 A 21.704 21.704 0 0 1 635.962 104.736 Q 636.914 103.345 638.379 102.612 Q 639.674 101.965 641.77 102.119 A 12.925 12.925 0 0 1 642.334 102.173 A 20.126 20.126 0 0 1 650.317 97.266 A 32.491 32.491 0 0 1 659.619 95.581 Q 662.025 95.477 663.386 96.53 A 3.867 3.867 0 0 1 664.307 97.559 A 8.665 8.665 0 0 1 665.483 100.777 A 11.452 11.452 0 0 1 665.625 102.612 A 16.179 16.179 0 0 1 663.867 109.937 A 103.597 103.597 0 0 1 660.983 115.292 A 117.318 117.318 0 0 1 659.912 117.114 A 70.219 70.219 0 0 0 655.957 124.732 A 20.499 20.499 0 0 0 654.309 131.159 A 24.907 24.907 0 0 0 654.199 133.521 L 654.199 135.059 A 16.608 16.608 0 0 0 654.346 137.256 A 23.792 23.792 0 0 0 654.557 138.572 A 19.682 19.682 0 0 0 654.712 139.307 Q 654.894 140.095 655.226 140.431 A 0.927 0.927 0 0 0 655.371 140.552 Q 655.82 140.776 656.182 140.915 A 5.317 5.317 0 0 0 656.396 140.991 L 655.664 141.577 A 43.361 43.361 0 0 1 658.827 142.103 A 31.676 31.676 0 0 1 661.67 142.822 A 7.022 7.022 0 0 0 663.733 143.128 Q 665.473 143.128 667.383 142.31 A 11.132 11.132 0 0 1 669.214 141.87 A 11.132 11.132 0 0 0 671.045 141.431 Q 671.799 141.347 672.218 140.999 A 1.37 1.37 0 0 0 672.656 140.332 Q 672.949 139.38 673.755 138.428 A 4.555 4.555 0 0 1 674.466 137.762 Q 675.219 137.186 676.392 136.67 A 6.901 6.901 0 0 1 677.613 136.281 Q 678.924 135.978 680.894 135.896 A 37.69 37.69 0 0 1 682.471 135.864 L 682.471 133.521 A 21.478 21.478 0 0 0 685.024 132.584 Q 686.351 131.994 687.434 131.262 A 13.587 13.587 0 0 0 687.451 131.25 A 80.275 80.275 0 0 1 690.486 129.286 A 71.683 71.683 0 0 1 691.479 128.687 A 15.613 15.613 0 0 1 695.129 127.126 A 17.899 17.899 0 0 1 695.874 126.929 Q 698.272 126.347 701.896 126.92 A 28.479 28.479 0 0 1 701.953 126.929 Q 700.774 127.977 698.833 129.553 A 188.795 188.795 0 0 1 698.364 129.932 Q 696.094 131.763 695.361 133.228 A 30.814 30.814 0 0 0 694.754 134.285 Q 694.29 135.132 693.97 135.864 A 9.958 9.958 0 0 1 693.439 136.914 A 7.287 7.287 0 0 1 692.798 137.842 A 4.027 4.027 0 0 1 691.623 138.811 A 5.075 5.075 0 0 1 691.04 139.087 A 5.125 5.125 0 0 1 690.19 139.337 Q 689.287 139.526 688.037 139.526 Q 688.037 139.954 686.58 141.284 A 25.518 25.518 0 0 1 686.499 141.358 A 243.37 243.37 0 0 1 684.906 142.786 A 290.777 290.777 0 0 1 683.203 144.287 A 118.968 118.968 0 0 0 681.519 145.789 A 95.733 95.733 0 0 0 679.98 147.217 Q 678.534 148.591 678.516 149.037 A 0.275 0.275 0 0 0 678.516 149.048 Z" id="7" vector-effect="non-scaling-stroke"/>
		<path d="M 696.24 147.144 L 696.24 146.997 L 693.164 144.36 L 692.725 144.8 A 6.189 6.189 0 0 0 691.567 146.384 A 5.91 5.91 0 0 0 691.553 146.411 A 9.043 9.043 0 0 1 690.527 148.023 A 55.866 55.866 0 0 1 688.037 151.465 A 15.502 15.502 0 0 1 685.034 154.395 A 13.375 13.375 0 0 1 681.445 156.299 Q 679.541 156.958 677.344 156.665 Q 677.344 153.15 679.321 150.22 A 292.258 292.258 0 0 0 683.13 144.434 A 16.821 16.821 0 0 0 684.872 140.898 A 14.404 14.404 0 0 0 685.474 138.574 A 5.354 5.354 0 0 0 685.55 137.672 Q 685.55 135.648 684.041 133.463 A 14.393 14.393 0 0 0 683.057 132.202 A 6.028 6.028 0 0 0 682.374 129.858 Q 681.978 129.089 681.357 128.331 A 10.844 10.844 0 0 0 681.226 128.174 A 74.41 74.41 0 0 1 678.099 124.25 A 67.693 67.693 0 0 1 678.076 124.219 Q 676.777 122.464 676.457 120.768 A 6.11 6.11 0 0 1 676.392 120.337 Q 676.172 118.433 678.955 116.528 Q 677.637 116.235 677.197 115.503 A 3.299 3.299 0 0 1 677.32 114.632 A 4.446 4.446 0 0 1 677.563 113.965 A 38.795 38.795 0 0 0 677.993 112.987 A 32.621 32.621 0 0 0 678.223 112.427 A 4.698 4.698 0 0 0 679.379 112.277 A 5.958 5.958 0 0 0 680.054 112.061 A 21.458 21.458 0 0 1 680.969 111.731 A 15.895 15.895 0 0 1 681.812 111.475 Q 682.214 111.365 682.581 111.365 A 2.186 2.186 0 0 1 683.276 111.475 A 1.329 1.329 0 0 1 683.721 111.738 Q 684.06 112.031 684.378 112.596 A 6.225 6.225 0 0 1 684.521 112.866 A 10.76 10.76 0 0 1 685.139 114.391 A 12.236 12.236 0 0 1 685.254 114.771 A 17.203 17.203 0 0 0 685.986 116.821 A 28.198 28.198 0 0 0 688.916 122.315 A 33.555 33.555 0 0 0 692.871 127.075 L 693.311 127.515 A 0.185 0.185 0 0 1 693.335 127.437 Q 693.43 127.249 693.896 126.782 A 30.419 30.419 0 0 1 694.519 126.178 A 39.434 39.434 0 0 1 695.215 125.537 Q 695.947 124.878 696.533 124.292 L 697.412 123.413 A 1144.084 1144.084 0 0 1 699.966 121.079 A 997.203 997.203 0 0 1 700.781 120.337 A 28.343 28.343 0 0 0 702.908 118.193 A 24.591 24.591 0 0 0 703.638 117.334 A 11.12 11.12 0 0 0 705.541 113.82 L 705.542 113.818 Q 706.16 111.965 706.199 109.531 A 20.606 20.606 0 0 0 706.201 109.204 Q 710.742 106.128 715.137 102.393 A 251.859 251.859 0 0 1 724.072 95.142 A 79.446 79.446 0 0 1 733.521 88.843 A 33.275 33.275 0 0 1 744.141 85.034 A 13.829 13.829 0 0 0 745.426 86.948 A 10.099 10.099 0 0 0 747.217 88.696 Q 748.975 90.015 750.659 91.333 Q 752.344 92.651 753.735 94.556 A 8.988 8.988 0 0 1 754.733 96.345 Q 755.118 97.249 755.398 98.345 A 19.582 19.582 0 0 1 755.713 99.829 Q 756.318 103.08 756.318 106.136 A 28.642 28.642 0 0 1 755.786 111.694 A 84.965 84.965 0 0 1 753.825 119.556 A 100.606 100.606 0 0 1 752.637 123.267 Q 751.465 126.782 750.513 130.444 A 29.568 29.568 0 0 0 749.561 137.915 L 750.586 138.208 A 7.263 7.263 0 0 1 751.621 137.08 Q 752.39 136.41 753.262 136.11 A 4.434 4.434 0 0 1 753.589 136.011 A 20.285 20.285 0 0 1 757.031 135.425 A 26.577 26.577 0 0 0 760.474 134.912 A 4.141 4.141 0 0 0 762.485 133.812 A 6.108 6.108 0 0 0 763.33 132.788 Q 764.332 133.174 765.274 133.174 A 4.477 4.477 0 0 0 766.919 132.861 A 14.212 14.212 0 0 0 769.405 131.584 A 16.591 16.591 0 0 0 770.215 131.03 A 71.556 71.556 0 0 0 773.438 128.54 Q 775.049 127.222 776.807 126.782 L 776.66 125.61 Q 778.486 124.393 779.96 123.668 A 15.119 15.119 0 0 1 781.201 123.12 A 71.471 71.471 0 0 0 783.032 122.388 A 57.755 57.755 0 0 0 784.717 121.655 A 13.401 13.401 0 0 0 786.63 120.579 A 17.173 17.173 0 0 0 787.939 119.605 A 10.998 10.998 0 0 0 788.989 118.609 Q 790.192 117.325 791.602 115.21 Q 792.334 114.917 793.286 114.99 A 2.076 2.076 0 0 1 793.892 115.123 A 1.568 1.568 0 0 1 794.678 115.796 Q 793.945 120.337 792.92 122.754 A 14.442 14.442 0 0 1 791.846 124.827 A 10.802 10.802 0 0 1 790.356 126.709 Q 788.818 128.247 786.475 129.639 Q 784.882 130.585 782.883 132.106 A 71.512 71.512 0 0 0 780.908 133.667 A 131.604 131.604 0 0 1 779.773 134.509 A 105.022 105.022 0 0 1 778.711 135.278 A 15.158 15.158 0 0 0 777.429 136.308 A 18.735 18.735 0 0 0 776.66 137.036 A 35.864 35.864 0 0 0 774.49 137.77 Q 772.27 138.595 769.482 139.893 A 504.425 504.425 0 0 1 760.767 143.848 A 145.681 145.681 0 0 1 755.354 146.119 A 119.595 119.595 0 0 1 752.271 147.29 A 26.947 26.947 0 0 1 750.277 147.934 Q 747.688 148.652 745.883 148.476 A 6.667 6.667 0 0 1 745.752 148.462 A 3.109 3.109 0 0 1 744.688 149.342 Q 744.22 149.587 743.621 149.745 A 7.796 7.796 0 0 1 742.676 149.927 Q 740.865 150.168 739.75 150.211 A 11.702 11.702 0 0 1 739.307 150.22 Q 737.402 150.22 735.425 150.513 Q 733.447 150.806 731.982 152.271 L 731.616 152.637 A 0.333 0.333 0 0 0 731.604 152.65 Q 731.55 152.71 731.616 152.71 A 0.107 0.107 0 0 1 731.63 152.711 Q 731.682 152.718 731.616 152.783 Q 731.554 152.846 731.33 153.177 A 22.922 22.922 0 0 0 731.25 153.296 Q 729.639 155.2 727.954 155.347 A 7.04 7.04 0 0 1 727.344 155.373 A 7.035 7.035 0 0 1 724.658 154.834 Q 723.047 154.175 721.362 153.15 A 15.744 15.744 0 0 0 719.257 152.068 A 13.316 13.316 0 0 0 717.993 151.611 A 6.8 6.8 0 0 0 716.003 151.312 A 7.105 7.105 0 0 0 714.551 151.465 A 4.663 4.663 0 0 0 713.068 152.074 Q 712.48 152.434 711.893 152.982 A 11.18 11.18 0 0 0 711.035 153.882 Q 710.269 151.912 708.848 151.168 A 3.85 3.85 0 0 0 707.813 150.806 A 27.216 27.216 0 0 0 703.345 150.293 A 31.092 31.092 0 0 1 700.063 150.018 A 27.353 27.353 0 0 1 699.023 149.854 A 3.249 3.249 0 0 1 696.656 148.134 A 5.305 5.305 0 0 1 696.24 147.144 Z M 735.205 99.097 L 735.205 99.39 L 735.059 99.39 A 112.48 112.48 0 0 0 721.216 111.914 A 245.55 245.55 0 0 1 707.813 125.171 L 706.494 123.853 Q 705.469 125.171 705.396 126.636 A 58.705 58.705 0 0 0 705.329 128.581 A 49.98 49.98 0 0 0 705.322 129.419 A 10.591 10.591 0 0 1 705.161 131.295 A 9.354 9.354 0 0 1 705.029 131.909 A 2.895 2.895 0 0 1 704.536 132.924 Q 704.268 133.288 703.872 133.637 A 6.837 6.837 0 0 1 703.271 134.107 L 702.832 134.4 A 7.813 7.813 0 0 0 703.157 135.329 Q 703.693 136.579 704.517 136.963 A 4.754 4.754 0 0 0 706.551 137.412 A 5.261 5.261 0 0 0 706.86 137.402 A 37.062 37.062 0 0 0 709.241 137.187 A 33.936 33.936 0 0 0 709.277 137.183 A 3.774 3.774 0 0 1 709.605 137.156 Q 710.056 137.139 710.433 137.243 A 2.06 2.06 0 0 1 711.182 137.622 A 1.35 1.35 0 0 1 711.689 138.259 A 1.839 1.839 0 0 1 711.768 138.501 A 5.782 5.782 0 0 1 711.857 138.92 Q 711.914 139.252 711.914 139.526 L 713.452 139.526 Q 714.258 139.526 715.137 139.38 Q 716.662 139.103 718.384 139.285 A 13.919 13.919 0 0 1 718.579 139.307 Q 719.987 139.476 720.486 140.728 A 3.715 3.715 0 0 1 720.703 141.577 A 265.327 265.327 0 0 0 726.325 139.251 A 289.707 289.707 0 0 0 726.709 139.087 Q 729.785 137.769 731.689 134.839 L 732.715 135.864 Q 732.813 135.864 732.878 135.832 A 0.217 0.217 0 0 0 732.935 135.791 A 0.23 0.23 0 0 1 733.026 135.736 Q 733.062 135.724 733.106 135.72 A 0.515 0.515 0 0 1 733.154 135.718 Q 736.816 133.521 738.94 129.273 A 36.897 36.897 0 0 0 741.816 121.278 A 41.506 41.506 0 0 0 742.09 120.044 Q 743.115 115.064 743.335 110.083 A 252.283 252.283 0 0 0 743.485 105.95 Q 743.537 104.065 743.55 102.388 A 140.775 140.775 0 0 0 743.555 101.294 A 14.118 14.118 0 0 0 742.117 100.809 A 15.425 15.425 0 0 0 742.017 100.781 A 6.095 6.095 0 0 1 740.479 100.122 Q 739.264 99.313 738.175 98.876 A 8.946 8.946 0 0 0 737.988 98.804 Q 736.921 98.404 735.49 98.975 A 6.62 6.62 0 0 0 735.205 99.097 Z" id="8" vector-effect="non-scaling-stroke"/>
		<path d="M 776.66 149.048 L 776.66 145.972 A 7.965 7.965 0 0 1 777.206 144.362 Q 777.553 143.595 778.08 142.768 A 19.362 19.362 0 0 1 779.077 141.358 A 18.071 18.071 0 0 1 780.644 139.567 Q 781.536 138.682 782.455 138.065 A 9.698 9.698 0 0 1 783.179 137.622 A 5.26 5.26 0 0 1 784.026 137.243 Q 785.544 136.728 786.86 137.497 A 3.988 3.988 0 0 1 787.061 137.622 A 2.849 2.849 0 0 1 787.962 138.679 Q 788.862 140.36 788.965 144.068 A 22.629 22.629 0 0 0 790.869 142.236 A 1.979 1.979 0 0 1 791.338 141.855 Q 792.079 141.431 793.066 141.87 Q 792.92 144.068 792.48 146.997 A 19.855 19.855 0 0 1 791.315 151.387 A 18.027 18.027 0 0 1 790.869 152.417 A 13.752 13.752 0 0 1 788.37 156.098 A 12.952 12.952 0 0 1 787.793 156.665 Q 785.889 158.423 782.813 158.13 Q 781.189 157.995 780.127 157.234 A 4.048 4.048 0 0 1 779.956 157.105 A 7.256 7.256 0 0 1 778.266 155.151 A 8.367 8.367 0 0 1 778.125 154.907 Q 777.393 153.589 777.026 152.051 A 13.244 13.244 0 0 1 776.675 149.646 A 11.911 11.911 0 0 1 776.66 149.048 Z" id="9" vector-effect="non-scaling-stroke"/>
		<path d="M 823.389 147.144 L 823.389 146.997 L 820.313 144.36 L 819.873 144.8 A 6.189 6.189 0 0 0 818.715 146.384 A 5.91 5.91 0 0 0 818.701 146.411 A 9.043 9.043 0 0 1 817.676 148.023 A 55.866 55.866 0 0 1 815.186 151.465 A 15.502 15.502 0 0 1 812.183 154.395 A 13.375 13.375 0 0 1 808.594 156.299 Q 806.689 156.958 804.492 156.665 Q 804.492 153.15 806.47 150.22 A 292.258 292.258 0 0 0 810.278 144.434 A 16.821 16.821 0 0 0 812.02 140.898 A 14.404 14.404 0 0 0 812.622 138.574 A 5.354 5.354 0 0 0 812.698 137.672 Q 812.698 135.648 811.19 133.463 A 14.393 14.393 0 0 0 810.205 132.202 A 6.028 6.028 0 0 0 809.523 129.858 Q 809.127 129.089 808.505 128.331 A 10.844 10.844 0 0 0 808.374 128.174 A 74.41 74.41 0 0 1 805.248 124.25 A 67.693 67.693 0 0 1 805.225 124.219 Q 803.925 122.464 803.605 120.768 A 6.11 6.11 0 0 1 803.54 120.337 Q 803.32 118.433 806.104 116.528 Q 804.785 116.235 804.346 115.503 A 3.299 3.299 0 0 1 804.468 114.632 A 4.446 4.446 0 0 1 804.712 113.965 A 38.795 38.795 0 0 0 805.141 112.987 A 32.621 32.621 0 0 0 805.371 112.427 A 4.698 4.698 0 0 0 806.527 112.277 A 5.958 5.958 0 0 0 807.202 112.061 A 21.458 21.458 0 0 1 808.118 111.731 A 15.895 15.895 0 0 1 808.96 111.475 Q 809.363 111.365 809.729 111.365 A 2.186 2.186 0 0 1 810.425 111.475 A 1.329 1.329 0 0 1 810.869 111.738 Q 811.208 112.031 811.526 112.596 A 6.225 6.225 0 0 1 811.67 112.866 A 10.76 10.76 0 0 1 812.287 114.391 A 12.236 12.236 0 0 1 812.402 114.771 A 17.203 17.203 0 0 0 813.135 116.821 A 28.198 28.198 0 0 0 816.064 122.315 A 33.555 33.555 0 0 0 820.02 127.075 L 820.459 127.515 A 0.185 0.185 0 0 1 820.483 127.437 Q 820.578 127.249 821.045 126.782 A 30.419 30.419 0 0 1 821.667 126.178 A 39.434 39.434 0 0 1 822.363 125.537 Q 823.096 124.878 823.682 124.292 L 824.561 123.413 A 1144.084 1144.084 0 0 1 827.115 121.079 A 997.203 997.203 0 0 1 827.93 120.337 A 28.343 28.343 0 0 0 830.057 118.193 A 24.591 24.591 0 0 0 830.786 117.334 A 11.12 11.12 0 0 0 832.69 113.82 L 832.69 113.818 Q 833.308 111.965 833.347 109.531 A 20.606 20.606 0 0 0 833.35 109.204 Q 837.891 106.128 842.285 102.393 A 251.859 251.859 0 0 1 851.221 95.142 A 79.446 79.446 0 0 1 860.669 88.843 A 33.275 33.275 0 0 1 871.289 85.034 A 13.829 13.829 0 0 0 872.574 86.948 A 10.099 10.099 0 0 0 874.365 88.696 Q 876.123 90.015 877.808 91.333 Q 879.492 92.651 880.884 94.556 A 8.988 8.988 0 0 1 881.881 96.345 Q 882.267 97.249 882.546 98.345 A 19.582 19.582 0 0 1 882.861 99.829 Q 883.466 103.08 883.466 106.136 A 28.642 28.642 0 0 1 882.935 111.694 A 84.965 84.965 0 0 1 880.974 119.556 A 100.606 100.606 0 0 1 879.785 123.267 Q 878.613 126.782 877.661 130.444 A 29.568 29.568 0 0 0 876.709 137.915 L 877.734 138.208 A 7.263 7.263 0 0 1 878.769 137.08 Q 879.539 136.41 880.411 136.11 A 4.434 4.434 0 0 1 880.737 136.011 A 20.285 20.285 0 0 1 884.18 135.425 A 26.577 26.577 0 0 0 887.622 134.912 A 4.141 4.141 0 0 0 889.633 133.812 A 6.108 6.108 0 0 0 890.479 132.788 Q 891.481 133.174 892.422 133.174 A 4.477 4.477 0 0 0 894.067 132.861 A 14.212 14.212 0 0 0 896.553 131.584 A 16.591 16.591 0 0 0 897.363 131.03 A 71.556 71.556 0 0 0 900.586 128.54 Q 902.197 127.222 903.955 126.782 L 903.809 125.61 Q 905.634 124.393 907.109 123.668 A 15.119 15.119 0 0 1 908.35 123.12 A 71.471 71.471 0 0 0 910.181 122.388 A 57.755 57.755 0 0 0 911.865 121.655 A 13.401 13.401 0 0 0 913.779 120.579 A 17.173 17.173 0 0 0 915.088 119.605 A 10.998 10.998 0 0 0 916.138 118.609 Q 917.34 117.325 918.75 115.21 Q 919.482 114.917 920.435 114.99 A 2.076 2.076 0 0 1 921.041 115.123 A 1.568 1.568 0 0 1 921.826 115.796 Q 921.094 120.337 920.068 122.754 A 14.442 14.442 0 0 1 918.994 124.827 A 10.802 10.802 0 0 1 917.505 126.709 Q 915.967 128.247 913.623 129.639 Q 912.03 130.585 910.031 132.106 A 71.512 71.512 0 0 0 908.057 133.667 A 131.604 131.604 0 0 1 906.921 134.509 A 105.022 105.022 0 0 1 905.859 135.278 A 15.158 15.158 0 0 0 904.578 136.308 A 18.735 18.735 0 0 0 903.809 137.036 A 35.864 35.864 0 0 0 901.639 137.77 Q 899.419 138.595 896.631 139.893 A 504.425 504.425 0 0 1 887.915 143.848 A 145.681 145.681 0 0 1 882.502 146.119 A 119.595 119.595 0 0 1 879.419 147.29 A 26.947 26.947 0 0 1 877.425 147.934 Q 874.837 148.652 873.031 148.476 A 6.667 6.667 0 0 1 872.9 148.462 A 3.109 3.109 0 0 1 871.836 149.342 Q 871.369 149.587 870.769 149.745 A 7.796 7.796 0 0 1 869.824 149.927 Q 868.013 150.168 866.899 150.211 A 11.702 11.702 0 0 1 866.455 150.22 Q 864.551 150.22 862.573 150.513 Q 860.596 150.806 859.131 152.271 L 858.765 152.637 A 0.333 0.333 0 0 0 858.752 152.65 Q 858.698 152.71 858.765 152.71 A 0.107 0.107 0 0 1 858.778 152.711 Q 858.83 152.718 858.765 152.783 Q 858.702 152.846 858.478 153.177 A 22.922 22.922 0 0 0 858.398 153.296 Q 856.787 155.2 855.103 155.347 A 7.04 7.04 0 0 1 854.492 155.373 A 7.035 7.035 0 0 1 851.807 154.834 Q 850.195 154.175 848.511 153.15 A 15.744 15.744 0 0 0 846.405 152.068 A 13.316 13.316 0 0 0 845.142 151.611 A 6.8 6.8 0 0 0 843.151 151.312 A 7.105 7.105 0 0 0 841.699 151.465 A 4.663 4.663 0 0 0 840.216 152.074 Q 839.629 152.434 839.041 152.982 A 11.18 11.18 0 0 0 838.184 153.882 Q 837.417 151.912 835.997 151.168 A 3.85 3.85 0 0 0 834.961 150.806 A 27.216 27.216 0 0 0 830.493 150.293 A 31.092 31.092 0 0 1 827.211 150.018 A 27.353 27.353 0 0 1 826.172 149.854 A 3.249 3.249 0 0 1 823.804 148.134 A 5.305 5.305 0 0 1 823.389 147.144 Z M 862.354 99.097 L 862.354 99.39 L 862.207 99.39 A 112.48 112.48 0 0 0 848.364 111.914 A 245.55 245.55 0 0 1 834.961 125.171 L 833.643 123.853 Q 832.617 125.171 832.544 126.636 A 58.705 58.705 0 0 0 832.478 128.581 A 49.98 49.98 0 0 0 832.471 129.419 A 10.591 10.591 0 0 1 832.309 131.295 A 9.354 9.354 0 0 1 832.178 131.909 A 2.895 2.895 0 0 1 831.684 132.924 Q 831.416 133.288 831.021 133.637 A 6.837 6.837 0 0 1 830.42 134.107 L 829.98 134.4 A 7.813 7.813 0 0 0 830.305 135.329 Q 830.841 136.579 831.665 136.963 A 4.754 4.754 0 0 0 833.7 137.412 A 5.261 5.261 0 0 0 834.009 137.402 A 37.062 37.062 0 0 0 836.389 137.187 A 33.936 33.936 0 0 0 836.426 137.183 A 3.774 3.774 0 0 1 836.754 137.156 Q 837.204 137.139 837.582 137.243 A 2.06 2.06 0 0 1 838.33 137.622 A 1.35 1.35 0 0 1 838.838 138.259 A 1.839 1.839 0 0 1 838.916 138.501 A 5.782 5.782 0 0 1 839.005 138.92 Q 839.063 139.252 839.063 139.526 L 840.601 139.526 Q 841.406 139.526 842.285 139.38 Q 843.81 139.103 845.532 139.285 A 13.919 13.919 0 0 1 845.728 139.307 Q 847.136 139.476 847.634 140.728 A 3.715 3.715 0 0 1 847.852 141.577 A 265.327 265.327 0 0 0 853.473 139.251 A 289.707 289.707 0 0 0 853.857 139.087 Q 856.934 137.769 858.838 134.839 L 859.863 135.864 Q 859.961 135.864 860.026 135.832 A 0.217 0.217 0 0 0 860.083 135.791 A 0.23 0.23 0 0 1 860.175 135.736 Q 860.211 135.724 860.255 135.72 A 0.515 0.515 0 0 1 860.303 135.718 Q 863.965 133.521 866.089 129.273 A 36.897 36.897 0 0 0 868.965 121.278 A 41.506 41.506 0 0 0 869.238 120.044 Q 870.264 115.064 870.483 110.083 A 252.283 252.283 0 0 0 870.634 105.95 Q 870.686 104.065 870.699 102.388 A 140.775 140.775 0 0 0 870.703 101.294 A 14.118 14.118 0 0 0 869.265 100.809 A 15.425 15.425 0 0 0 869.165 100.781 A 6.095 6.095 0 0 1 867.627 100.122 Q 866.413 99.313 865.323 98.876 A 8.946 8.946 0 0 0 865.137 98.804 Q 864.07 98.404 862.638 98.975 A 6.62 6.62 0 0 0 862.354 99.097 Z" id="10" vector-effect="non-scaling-stroke"/>
		<path d="M 948.34 158.13 L 946.143 158.13 A 11.173 11.173 0 0 0 946.175 157.273 Q 946.175 155.754 945.776 154.102 A 3.293 3.293 0 0 0 945.208 152.858 Q 944.675 152.16 943.743 151.862 A 4.536 4.536 0 0 0 942.92 151.685 A 8.12 8.12 0 0 0 944.401 149.412 A 7.449 7.449 0 0 0 944.824 148.096 A 36.46 36.46 0 0 0 945.483 144.068 A 33.425 33.425 0 0 1 946.136 140.142 A 31.434 31.434 0 0 1 946.143 140.112 Q 946.582 138.208 948.34 136.89 A 8.112 8.112 0 0 1 947.412 135.336 Q 946.703 133.749 946.948 132.129 A 15.032 15.032 0 0 1 947.99 128.508 A 17.928 17.928 0 0 1 948.56 127.295 A 117.897 117.897 0 0 1 951.196 122.461 Q 952.588 120.044 952.588 117.554 Q 951.27 116.675 950.171 115.137 A 2.856 2.856 0 0 0 949.616 114.544 Q 948.648 113.784 947.224 114.31 A 4.473 4.473 0 0 0 947.168 114.331 A 213.278 213.278 0 0 1 939.258 121.582 A 176.557 176.557 0 0 0 931.567 128.687 A 95.078 95.078 0 0 0 924.536 136.377 A 64.958 64.958 0 0 0 919.161 144.043 A 72.45 72.45 0 0 0 918.457 145.239 A 6.349 6.349 0 0 0 916.502 145.904 A 5.353 5.353 0 0 0 914.648 147.583 A 29.903 29.903 0 0 0 912.305 151.611 A 35.755 35.755 0 0 1 910.034 155.64 A 5.753 5.753 0 0 1 906.592 158.13 A 265.257 265.257 0 0 1 905.054 162.891 A 265.257 265.257 0 0 0 903.516 167.651 A 6.696 6.696 0 0 0 902.784 167.343 Q 902.115 167.102 901.245 166.919 A 24.565 24.565 0 0 1 898.535 166.187 A 11.274 11.274 0 0 1 897.073 165.587 A 9.271 9.271 0 0 1 896.191 165.088 A 3.471 3.471 0 0 1 895.457 164.467 A 2.723 2.723 0 0 1 894.873 163.403 A 0.677 0.677 0 0 1 894.824 163.262 Q 894.741 162.922 894.8 162.158 A 63.943 63.943 0 0 0 894.828 161.773 Q 894.863 161.29 894.871 161.043 A 4.083 4.083 0 0 0 894.873 160.913 Q 895.166 156.812 896.997 153.223 A 122.597 122.597 0 0 1 900.879 146.192 A 107.715 107.715 0 0 0 904.687 139.234 A 18.271 18.271 0 0 0 906.53 132.52 A 21.462 21.462 0 0 0 906.592 131.47 A 5.628 5.628 0 0 0 907.591 131.388 Q 908.112 131.294 908.507 131.09 A 2.091 2.091 0 0 0 909.448 130.151 A 13.552 13.552 0 0 0 910.474 127.368 A 14.131 14.131 0 0 1 910.955 125.813 A 11.419 11.419 0 0 1 911.426 124.732 Q 912.011 123.562 914.056 123.852 A 6.847 6.847 0 0 1 914.063 123.853 Q 912.932 122.346 912.932 120.57 A 5.822 5.822 0 0 1 912.964 119.971 A 14.938 14.938 0 0 1 913.853 116.254 A 17.004 17.004 0 0 1 914.063 115.723 A 23.767 23.767 0 0 1 916.26 111.621 A 59.497 59.497 0 0 0 917.329 109.961 Q 917.804 109.194 918.201 108.493 A 34.014 34.014 0 0 0 918.457 108.032 A 12.789 12.789 0 0 1 918.424 107.121 A 13.109 13.109 0 0 1 918.823 103.931 A 9.254 9.254 0 0 1 920.654 100.269 A 57.186 57.186 0 0 0 922.045 98.502 A 45.489 45.489 0 0 0 922.998 97.193 A 83.065 83.065 0 0 0 924.792 94.517 A 91.648 91.648 0 0 0 925.049 94.116 A 6.675 6.675 0 0 0 926.001 92.505 Q 926.367 91.626 926.807 90.894 Q 928.125 88.989 928.564 86.865 Q 929.004 84.741 929.517 82.617 Q 930.029 80.493 930.981 78.809 A 5.159 5.159 0 0 1 932.258 77.337 Q 932.859 76.852 933.654 76.45 A 10.917 10.917 0 0 1 934.424 76.099 A 8.932 8.932 0 0 1 934.689 73.896 A 8.001 8.001 0 0 1 934.937 73.096 A 110.022 110.022 0 0 1 935.89 70.604 A 120.633 120.633 0 0 1 936.035 70.239 Q 936.621 68.775 937.134 67.383 A 8.439 8.439 0 0 0 937.634 64.884 A 9.815 9.815 0 0 0 937.646 64.38 A 4.646 4.646 0 0 1 938.115 63.739 Q 938.376 63.437 938.712 63.134 A 8.707 8.707 0 0 1 938.965 62.915 A 25.092 25.092 0 0 0 940.153 61.862 A 21.608 21.608 0 0 0 940.576 61.45 Q 941.309 60.718 941.748 59.912 Q 942.111 59.248 941.975 58.334 A 4.186 4.186 0 0 0 941.895 57.935 A 20.164 20.164 0 0 0 941.953 56.388 A 22.601 22.601 0 0 0 941.821 53.98 A 5.387 5.387 0 0 1 941.79 53.406 A 4.257 4.257 0 0 1 942.92 50.464 A 6.811 6.811 0 0 1 942.854 49.864 Q 942.758 48.369 943.433 47.388 Q 944.238 46.216 945.41 45.337 A 24.984 24.984 0 0 1 947.292 44.06 A 28.764 28.764 0 0 1 947.974 43.652 A 12.245 12.245 0 0 0 949.696 42.456 A 10.54 10.54 0 0 0 950.391 41.821 A 2.352 2.352 0 0 1 949.933 40.425 Q 949.933 40.135 950 39.828 A 3.459 3.459 0 0 1 950.098 39.478 A 11.169 11.169 0 0 1 951.195 37.148 A 12.505 12.505 0 0 1 951.343 36.914 A 20.981 20.981 0 0 1 953.174 34.497 A 16.199 16.199 0 0 0 953.757 33.793 Q 954.042 33.428 954.26 33.096 A 6.449 6.449 0 0 0 954.639 32.446 Q 955.518 30.689 956.177 28.931 A 22.802 22.802 0 0 1 957.606 25.828 A 21.032 21.032 0 0 1 957.715 25.635 Q 958.594 24.097 959.839 22.778 A 8.456 8.456 0 0 1 961.442 21.468 A 11.668 11.668 0 0 1 963.135 20.581 A 12.487 12.487 0 0 1 962.982 19.641 Q 962.708 17.383 963.501 16.04 A 8.665 8.665 0 0 1 965.532 13.712 A 10.324 10.324 0 0 1 966.138 13.257 Q 967.822 12.085 969.727 10.986 A 8.189 8.189 0 0 0 972.577 8.213 A 9.801 9.801 0 0 0 972.803 7.837 A 991.055 991.055 0 0 1 974.487 7.379 A 1271.215 1271.215 0 0 1 976.318 6.885 A 26.176 26.176 0 0 1 980.127 6.152 A 13.999 13.999 0 0 1 981.732 6.058 A 12.491 12.491 0 0 1 983.789 6.226 Q 985.547 6.519 987.012 7.837 L 987.744 8.569 A 1.288 1.288 0 0 1 987.8 8.629 Q 987.891 8.732 987.891 8.789 Q 987.891 8.853 987.946 9.027 A 4.021 4.021 0 0 0 987.964 9.082 A 0.565 0.565 0 0 0 988.02 9.196 Q 988.132 9.377 988.431 9.691 A 10.773 10.773 0 0 0 988.623 9.888 A 24.43 24.43 0 0 0 989.648 10.857 A 22.252 22.252 0 0 0 989.795 10.986 A 8.509 8.509 0 0 1 990.417 11.593 A 11.26 11.26 0 0 1 990.967 12.232 A 7.38 7.38 0 0 1 991.035 13.032 Q 991.058 13.724 990.967 14.502 A 20.951 20.951 0 0 0 990.823 16.625 A 18.973 18.973 0 0 0 990.82 16.919 A 6.648 6.648 0 0 0 991.039 18.644 A 6.061 6.061 0 0 0 991.187 19.116 A 1.988 1.988 0 0 0 991.916 20.063 Q 992.21 20.277 992.606 20.438 A 4.69 4.69 0 0 0 993.018 20.581 A 29.444 29.444 0 0 0 992.001 27.283 Q 991.956 28.455 991.992 29.663 A 321.601 321.601 0 0 1 992.139 39.404 A 59.991 59.991 0 0 1 991.578 47.712 A 54.705 54.705 0 0 1 991.406 48.853 A 15.847 15.847 0 0 1 987.598 56.909 L 986.572 64.38 A 5.514 5.514 0 0 0 985.594 64.538 Q 984.462 64.835 983.936 65.625 A 6.69 6.69 0 0 0 983.116 67.372 A 8.228 8.228 0 0 0 982.91 68.189 A 48.89 48.89 0 0 0 982.512 70.468 A 55.503 55.503 0 0 0 982.397 71.265 A 6.013 6.013 0 0 1 982.087 72.541 A 4.43 4.43 0 0 1 981.299 73.901 A 29.365 29.365 0 0 0 980.127 75.476 A 38.221 38.221 0 0 0 978.955 77.271 A 32.692 32.692 0 0 1 976.873 80.276 A 29.449 29.449 0 0 1 976.465 80.786 A 13.146 13.146 0 0 1 973.462 83.496 A 6.79 6.79 0 0 1 970.188 84.573 A 8.382 8.382 0 0 1 969.58 84.595 Q 969.383 85.185 968.922 85.908 A 11.962 11.962 0 0 1 968.408 86.646 A 21.105 21.105 0 0 1 966.567 88.779 A 23.153 23.153 0 0 1 966.431 88.916 A 16.744 16.744 0 0 1 964.742 90.399 A 14.714 14.714 0 0 1 964.16 90.82 Q 963.349 91.378 962.678 91.69 A 5.414 5.414 0 0 1 962.109 91.919 A 20.933 20.933 0 0 1 961.126 92.262 Q 960.521 92.455 959.985 92.578 A 5.236 5.236 0 0 0 959.175 92.841 Q 958.789 93 958.372 93.23 A 10.729 10.729 0 0 0 957.861 93.53 A 13.513 13.513 0 0 0 956.296 94.555 A 17.14 17.14 0 0 0 955.225 95.435 A 18.555 18.555 0 0 1 952.441 97.485 A 10.451 10.451 0 0 1 949.365 98.731 A 4.833 4.833 0 0 1 948.291 98.853 Q 947.217 98.853 946.143 98.364 A 9.609 9.609 0 0 1 944.579 99.914 A 6.762 6.762 0 0 1 941.821 101.221 A 43.477 43.477 0 0 1 938.278 101.825 A 38.6 38.6 0 0 1 937.134 101.953 A 15.261 15.261 0 0 0 933.511 102.741 A 14.053 14.053 0 0 0 932.886 102.979 A 4.493 4.493 0 0 0 931.053 104.393 Q 930.579 104.991 930.204 105.795 A 9.968 9.968 0 0 0 929.883 106.568 A 0.994 0.994 0 0 0 929.732 106.77 Q 929.597 107.001 929.48 107.392 A 6.834 6.834 0 0 0 929.37 107.813 A 22.726 22.726 0 0 0 929.285 108.198 Q 929.176 108.709 929.155 108.956 A 1.241 1.241 0 0 0 929.15 109.058 Q 929.15 110.669 929.004 113.013 A 7.403 7.403 0 0 0 928.989 113.414 Q 928.973 115.459 930.176 116.528 A 63.011 63.011 0 0 0 940.21 110.596 A 53.689 53.689 0 0 1 950.391 104.81 L 951.416 105.982 A 6.829 6.829 0 0 1 951.699 104.724 Q 952.368 102.743 954.199 102.686 A 50.546 50.546 0 0 1 955.778 102.661 A 55.441 55.441 0 0 1 959.033 102.759 L 960.059 102.759 Q 960.352 102.759 960.571 102.686 A 1.361 1.361 0 0 1 960.809 102.631 Q 960.921 102.615 961.048 102.613 A 2.29 2.29 0 0 1 961.084 102.612 A 5.376 5.376 0 0 1 962.464 102.777 Q 964.082 103.206 964.726 104.76 A 4.296 4.296 0 0 1 964.746 104.81 A 125.214 125.214 0 0 1 965.982 108.023 A 110.427 110.427 0 0 1 966.357 109.058 A 13.031 13.031 0 0 0 964.141 112.421 A 15.234 15.234 0 0 0 963.794 113.233 A 67.624 67.624 0 0 0 962.137 117.958 A 73.973 73.973 0 0 0 962.036 118.286 Q 961.23 120.923 960.278 123.486 Q 959.326 126.05 957.715 128.247 Q 958.901 128.906 958.901 129.684 A 1.059 1.059 0 0 1 958.887 129.859 A 7.894 7.894 0 0 1 958.441 131.452 A 8.83 8.83 0 0 1 958.374 131.616 Q 958.112 132.244 958.112 132.835 A 2.602 2.602 0 0 0 958.154 133.301 A 0.956 0.956 0 0 0 958.462 133.827 Q 958.926 134.263 960.059 134.546 A 6.256 6.256 0 0 0 958.994 135.474 A 4.575 4.575 0 0 0 958.081 136.963 A 25.353 25.353 0 0 0 957.296 139.51 A 27.977 27.977 0 0 0 957.202 139.893 A 43.129 43.129 0 0 1 956.559 142.295 A 38.233 38.233 0 0 1 956.396 142.822 A 4.66 4.66 0 0 1 955.26 144.686 A 6.073 6.073 0 0 1 954.639 145.239 A 21.782 21.782 0 0 1 955.34 147.018 A 18.594 18.594 0 0 1 955.591 147.803 Q 955.896 148.84 955.743 150.132 A 8.558 8.558 0 0 1 955.664 150.659 Q 957.715 153.296 959.839 153.589 Q 961.963 153.882 964.014 153.296 A 246.228 246.228 0 0 1 967.715 152.271 A 270.839 270.839 0 0 1 968.262 152.124 Q 970.129 151.626 972.103 152.186 A 8.972 8.972 0 0 1 972.803 152.417 Q 976.904 149.634 978.516 149.048 A 99.834 99.834 0 0 1 979.28 148.773 Q 980.026 148.509 980.597 148.322 A 29.325 29.325 0 0 1 981.079 148.169 A 4.456 4.456 0 0 0 981.76 147.89 Q 982.427 147.555 983.234 146.94 A 15.33 15.33 0 0 0 983.35 146.851 Q 984.427 146.013 987.068 143.514 A 245.509 245.509 0 0 0 988.33 142.31 A 17.661 17.661 0 0 0 994.849 138.941 Q 997.705 136.597 1001.074 134.985 A 95.648 95.648 0 0 1 998.994 139.188 Q 997.041 142.886 995.215 145.386 A 31.102 31.102 0 0 1 991.076 150.034 A 27.206 27.206 0 0 1 988.989 151.758 A 38.39 38.39 0 0 1 985.199 154.23 Q 983.13 155.42 980.713 156.519 A 1870.185 1870.185 0 0 0 978.14 157.691 Q 974.32 159.434 969.278 161.752 A 5298.499 5298.499 0 0 0 968.555 162.085 Q 966.602 161.597 964.714 161.597 A 14.332 14.332 0 0 0 962.842 161.719 A 75.416 75.416 0 0 1 958.791 162.145 A 65.944 65.944 0 0 1 957.495 162.232 A 16.21 16.21 0 0 1 956.57 162.258 A 14.639 14.639 0 0 1 952.588 161.719 A 5.881 5.881 0 0 1 950.487 160.602 Q 949.777 160.03 949.116 159.207 A 13.19 13.19 0 0 1 948.34 158.13 Z M 985.547 16.333 L 979.248 15.308 Q 979.313 16.09 979.161 16.712 A 2.718 2.718 0 0 1 978.442 18.018 A 15.035 15.035 0 0 1 976.355 19.75 A 16.423 16.423 0 0 1 976.318 19.776 A 91.43 91.43 0 0 0 974.048 21.387 Q 972.949 22.193 972.803 23.804 Q 970.898 24.683 970.313 26.148 Q 969.727 27.612 969.36 29.151 Q 968.994 30.689 968.262 32.153 Q 967.675 33.326 966.151 34.123 A 8.909 8.909 0 0 1 965.332 34.497 L 966.357 35.523 A 33.149 33.149 0 0 0 958.667 45.923 Q 955.811 51.929 953.613 57.935 A 13.107 13.107 0 0 0 950.859 62.338 A 12.683 12.683 0 0 0 950.684 62.842 Q 949.805 65.552 948.999 68.262 A 29.56 29.56 0 0 1 946.948 73.389 A 7.992 7.992 0 0 1 944.064 76.495 A 10.463 10.463 0 0 1 942.92 77.124 Q 944.092 78.648 944.092 79.984 A 2.952 2.952 0 0 1 944.019 80.64 A 7.203 7.203 0 0 1 943.076 82.88 A 8.984 8.984 0 0 1 942.48 83.716 A 127.663 127.663 0 0 1 940.063 86.646 A 6.065 6.065 0 0 0 939.04 88.31 A 5.339 5.339 0 0 0 938.672 89.868 A 11.911 11.911 0 0 0 941.131 90.129 A 11.58 11.58 0 0 0 944.165 89.722 A 25.792 25.792 0 0 0 949.182 87.769 A 28.59 28.59 0 0 0 949.512 87.598 Q 952.148 86.206 954.492 84.448 Q 956.836 82.691 959.033 81.372 L 960.059 82.398 A 40.501 40.501 0 0 0 967.371 77.255 A 34.604 34.604 0 0 0 970.972 73.535 A 112.71 112.71 0 0 0 977.752 64.456 A 127.04 127.04 0 0 0 979.248 62.183 Q 978.062 61.26 978.062 60.218 A 1.876 1.876 0 0 1 978.076 59.985 A 57.182 57.182 0 0 1 978.316 59.395 Q 978.534 58.869 978.809 58.228 A 109.141 109.141 0 0 0 979.118 57.5 Q 979.358 56.928 979.541 56.47 A 74.007 74.007 0 0 0 980.823 52.222 A 56.681 56.681 0 0 0 981.738 48.267 A 118.8 118.8 0 0 0 984.448 32.373 Q 985.254 24.39 985.547 16.333 Z" id="11" vector-effect="non-scaling-stroke"/>
	</g>
</svg>